<mxfile host="app.diagrams.net" agent="Mozilla/5.0 (Windows NT 10.0; Win64; x64) AppleWebKit/537.36 (KHTML, like Gecko) Chrome/132.0.0.0 Safari/537.36 OPR/117.0.0.0" version="26.1.3">
  <diagram name="PÃ¡gina-1" id="dUUVW_q02sF6jDijJUFs">
    <mxGraphModel dx="1009" dy="615" grid="1" gridSize="10" guides="1" tooltips="1" connect="1" arrows="1" fold="1" page="1" pageScale="1" pageWidth="827" pageHeight="1169" math="0" shadow="0">
      <root>
        <mxCell id="0" />
        <mxCell id="1" parent="0" />
        <mxCell id="VD5Xs8L0Txkphz9zj47c-1" value="" style="shape=image;verticalLabelPosition=bottom;labelBackgroundColor=default;verticalAlign=top;aspect=fixed;imageAspect=0;editableCssRules=.*;image=data:image/svg+xml,PHN2ZyB4bWxuczp4bGluaz0iaHR0cDovL3d3dy53My5vcmcvMTk5OS94bGluayIgeG1sbnM9Imh0dHA6Ly93d3cudzMub3JnLzIwMDAvc3ZnIiB6b29tQW5kUGFuPSJtYWduaWZ5IiB3aWR0aD0iMTM1OCIgdmlld0JveD0iNiA2IDEzNTggMTA4OS45MTAwMzQxNzk2ODc1IiB2ZXJzaW9uPSIxLjEiIHN0eWxlPSJ3aWR0aDoxMzcxcHg7aGVpZ2h0OjExMDJweDtiYWNrZ3JvdW5kOiNGRkZGRkY7IiBwcmVzZXJ2ZUFzcGVjdFJhdGlvPSJub25lIiBoZWlnaHQ9IjEwODkuOTEwMDM0MTc5Njg3NSIgZGF0YS1kaWFncmFtLXR5cGU9IkNMQVNTIj48ZGVmcy8+PGc+PGcgaWQ9ImNsdXN0ZXJfR2VzdMOjbyBkZSBDb21wZXRpw6fDtWVzIiBkYXRhLXVpZD0iZW50MDAwMiIgZGF0YS1zb3VyY2UtbGluZT0iMiIgZGF0YS1lbnRpdHk9Ikdlc3TDo28gZGUgQ29tcGV0acOnw7VlcyIgY2xhc3M9ImNsdXN0ZXIiPjxwYXRoIHN0eWxlPSJzdHJva2U6IzAwMDAwMDtzdHJva2Utd2lkdGg6MS41OyIgZmlsbD0ibm9uZSIgZD0iTTg0NC41LDYgTDEwMzEuMDc1Miw2IEEzLjc1LDMuNzUgMCAwIDEgMTAzMy41NzUyLDguNSBMMTA0MC41NzUyLDI4LjI5NjkgTDExOTkuNSwyOC4yOTY5IEEyLjUsMi41IDAgMCAxIDEyMDIsMzAuNzk2OSBMMTIwMiw2NDQuMTQgQTIuNSwyLjUgMCAwIDEgMTE5OS41LDY0Ni42NCBMODQ0LjUsNjQ2LjY0IEEyLjUsMi41IDAgMCAxIDg0Miw2NDQuMTQgTDg0Miw4LjUgQTIuNSwyLjUgMCAwIDEgODQ0LjUsNiIvPjxsaW5lIHkyPSIyOC4yOTY5IiB5MT0iMjguMjk2OSIgeDI9IjEwNDAuNTc1MiIgeDE9Ijg0MiIgc3R5bGU9InN0cm9rZTojMDAwMDAwO3N0cm9rZS13aWR0aDoxLjU7Ii8+PHRleHQgeT0iMjAuOTk1MSIgeD0iODQ2IiB0ZXh0TGVuZ3RoPSIxODUuNTc1MiIgbGVuZ3RoQWRqdXN0PSJzcGFjaW5nIiBmb250LXdlaWdodD0iYm9sZCIgZm9udC1zaXplPSIxNCIgZm9udC1mYW1pbHk9InNhbnMtc2VyaWYiIGZpbGw9IiMwMDAwMDAiPkdlc3TDo28gZGUgQ29tcGV0acOnw7VlczwvdGV4dD48L2c+PGcgaWQ9ImNsdXN0ZXJfR2VzdMOjbyBkZSBBdGxldGFzIiBkYXRhLXVpZD0iZW50MDAwNiIgZGF0YS1zb3VyY2UtbGluZT0iMzIiIGRhdGEtZW50aXR5PSJHZXN0w6NvIGRlIEF0bGV0YXMiIGNsYXNzPSJjbHVzdGVyIj48cGF0aCBzdHlsZT0ic3Ryb2tlOiMwMDAwMDA7c3Ryb2tlLXdpZHRoOjEuNTsiIGZpbGw9Im5vbmUiIGQ9Ik03MjcuNSw2ODYuNjQgTDg2OS4xMzU3LDY4Ni42NCBBMy43NSwzLjc1IDAgMCAxIDg3MS42MzU3LDY4OS4xNCBMODc4LjYzNTcsNzA4LjkzNjkgTDEwNDUuNSw3MDguOTM2OSBBMi41LDIuNSAwIDAgMSAxMDQ4LDcxMS40MzY5IEwxMDQ4LDEwOTMuNDEgQTIuNSwyLjUgMCAwIDEgMTA0NS41LDEwOTUuOTEgTDcyNy41LDEwOTUuOTEgQTIuNSwyLjUgMCAwIDEgNzI1LDEwOTMuNDEgTDcyNSw2ODkuMTQgQTIuNSwyLjUgMCAwIDEgNzI3LjUsNjg2LjY0Ii8+PGxpbmUgeTI9IjcwOC45MzY5IiB5MT0iNzA4LjkzNjkiIHgyPSI4NzguNjM1NyIgeDE9IjcyNSIgc3R5bGU9InN0cm9rZTojMDAwMDAwO3N0cm9rZS13aWR0aDoxLjU7Ii8+PHRleHQgeT0iNzAxLjYzNTEiIHg9IjcyOSIgdGV4dExlbmd0aD0iMTQwLjYzNTciIGxlbmd0aEFkanVzdD0ic3BhY2luZyIgZm9udC13ZWlnaHQ9ImJvbGQiIGZvbnQtc2l6ZT0iMTQiIGZvbnQtZmFtaWx5PSJzYW5zLXNlcmlmIiBmaWxsPSIjMDAwMDAwIj5HZXN0w6NvIGRlIEF0bGV0YXM8L3RleHQ+PC9nPjxnIGlkPSJjbHVzdGVyX0luZnJhZXN0cnV0dXJhIiBkYXRhLXVpZD0iZW50MDAwOSIgZGF0YS1zb3VyY2UtbGluZT0iNTEiIGRhdGEtZW50aXR5PSJJbmZyYWVzdHJ1dHVyYSIgY2xhc3M9ImNsdXN0ZXIiPjxwYXRoIHN0eWxlPSJzdHJva2U6IzAwMDAwMDtzdHJva2Utd2lkdGg6MS41OyIgZmlsbD0ibm9uZSIgZD0iTTEwOTAuNSw4OTkuNDMgTDEyMDMuNTIwNSw4OTkuNDMgQTMuNzUsMy43NSAwIDAgMSAxMjA2LjAyMDUsOTAxLjkzIEwxMjEzLjAyMDUsOTIxLjcyNjkgTDEzNjEuNSw5MjEuNzI2OSBBMi41LDIuNSAwIDAgMSAxMzY0LDkyNC4yMjY5IEwxMzY0LDEwOTMuNDEgQTIuNSwyLjUgMCAwIDEgMTM2MS41LDEwOTUuOTEgTDEwOTAuNSwxMDk1LjkxIEEyLjUsMi41IDAgMCAxIDEwODgsMTA5My40MSBMMTA4OCw5MDEuOTMgQTIuNSwyLjUgMCAwIDEgMTA5MC41LDg5OS40MyIvPjxsaW5lIHkyPSI5MjEuNzI2OSIgeTE9IjkyMS43MjY5IiB4Mj0iMTIxMy4wMjA1IiB4MT0iMTA4OCIgc3R5bGU9InN0cm9rZTojMDAwMDAwO3N0cm9rZS13aWR0aDoxLjU7Ii8+PHRleHQgeT0iOTE0LjQyNTEiIHg9IjEwOTIiIHRleHRMZW5ndGg9IjExMi4wMjA1IiBsZW5ndGhBZGp1c3Q9InNwYWNpbmciIGZvbnQtd2VpZ2h0PSJib2xkIiBmb250LXNpemU9IjE0IiBmb250LWZhbWlseT0ic2Fucy1zZXJpZiIgZmlsbD0iIzAwMDAwMCI+SW5mcmFlc3RydXR1cmE8L3RleHQ+PC9nPjxnIGlkPSJjbHVzdGVyX1NHTyIgZGF0YS11aWQ9ImVudDAwMTgiIGRhdGEtc291cmNlLWxpbmU9IjcxIiBkYXRhLWVudGl0eT0iU0dPIiBjbGFzcz0iY2x1c3RlciI+PHBhdGggc3R5bGU9InN0cm9rZTojMDAwMDAwO3N0cm9rZS13aWR0aDoxLjU7IiBmaWxsPSJub25lIiBkPSJNOC41LDExLjc1IEw0Mi45NzU2LDExLjc1IEEzLjc1LDMuNzUgMCAwIDEgNDUuNDc1NiwxNC4yNSBMNTIuNDc1NiwzNC4wNDY5IEw3MDUuNSwzNC4wNDY5IEEyLjUsMi41IDAgMCAxIDcwOCwzNi41NDY5IEw3MDgsMzk3LjMyIEEyLjUsMi41IDAgMCAxIDcwNS41LDM5OS44MiBMOC41LDM5OS44MiBBMi41LDIuNSAwIDAgMSA2LDM5Ny4zMiBMNiwxNC4yNSBBMi41LDIuNSAwIDAgMSA4LjUsMTEuNzUiLz48bGluZSB5Mj0iMzQuMDQ2OSIgeTE9IjM0LjA0NjkiIHgyPSI1Mi40NzU2IiB4MT0iNiIgc3R5bGU9InN0cm9rZTojMDAwMDAwO3N0cm9rZS13aWR0aDoxLjU7Ii8+PHRleHQgeT0iMjYuNzQ1MSIgeD0iMTAiIHRleHRMZW5ndGg9IjMzLjQ3NTYiIGxlbmd0aEFkanVzdD0ic3BhY2luZyIgZm9udC13ZWlnaHQ9ImJvbGQiIGZvbnQtc2l6ZT0iMTQiIGZvbnQtZmFtaWx5PSJzYW5zLXNlcmlmIiBmaWxsPSIjMDAwMDAwIj5TR088L3RleHQ+PC9nPjxnIGlkPSJjbHVzdGVyX0dlc3TDo28gZGUgQ29tcGV0acOnw7VlcyIgZGF0YS11aWQ9ImVudDAwMTkiIGRhdGEtc291cmNlLWxpbmU9IjcyIiBkYXRhLWVudGl0eT0iR2VzdMOjbyBkZSBDb21wZXRpw6fDtWVzIiBjbGFzcz0iY2x1c3RlciI+PHBhdGggc3R5bGU9InN0cm9rZTojMDAwMDAwO3N0cm9rZS13aWR0aDoxLjU7IiBmaWxsPSJub25lIiBkPSJNMzIuNSw1NC43NSBMMjE5LjA3NTIsNTQuNzUgQTMuNzUsMy43NSAwIDAgMSAyMjEuNTc1Miw1Ny4yNSBMMjI4LjU3NTIsNzcuMDQ2OSBMMzA0LjUsNzcuMDQ2OSBBMi41LDIuNSAwIDAgMSAzMDcsNzkuNTQ2OSBMMzA3LDM3My4zMiBBMi41LDIuNSAwIDAgMSAzMDQuNSwzNzUuODIgTDMyLjUsMzc1LjgyIEEyLjUsMi41IDAgMCAxIDMwLDM3My4zMiBMMzAsNTcuMjUgQTIuNSwyLjUgMCAwIDEgMzIuNSw1NC43NSIvPjxsaW5lIHkyPSI3Ny4wNDY5IiB5MT0iNzcuMDQ2OSIgeDI9IjIyOC41NzUyIiB4MT0iMzAiIHN0eWxlPSJzdHJva2U6IzAwMDAwMDtzdHJva2Utd2lkdGg6MS41OyIvPjx0ZXh0IHk9IjY5Ljc0NTEiIHg9IjM0IiB0ZXh0TGVuZ3RoPSIxODUuNTc1MiIgbGVuZ3RoQWRqdXN0PSJzcGFjaW5nIiBmb250LXdlaWdodD0iYm9sZCIgZm9udC1zaXplPSIxNCIgZm9udC1mYW1pbHk9InNhbnMtc2VyaWYiIGZpbGw9IiMwMDAwMDAiPkdlc3TDo28gZGUgQ29tcGV0acOnw7VlczwvdGV4dD48L2c+PGcgaWQ9ImNsdXN0ZXJfR2VzdMOjbyBkZSBBdGxldGFzIiBkYXRhLXVpZD0iZW50MDAyMyIgZGF0YS1zb3VyY2UtbGluZT0iNzgiIGRhdGEtZW50aXR5PSJHZXN0w6NvIGRlIEF0bGV0YXMiIGNsYXNzPSJjbHVzdGVyIj48cGF0aCBzdHlsZT0ic3Ryb2tlOiMwMDAwMDA7c3Ryb2tlLXdpZHRoOjEuNTsiIGZpbGw9Im5vbmUiIGQ9Ik0zMzMuNSw1NC43NSBMNDc1LjEzNTcsNTQuNzUgQTMuNzUsMy43NSAwIDAgMSA0NzcuNjM1Nyw1Ny4yNSBMNDg0LjYzNTcsNzcuMDQ2OSBMNTI5LjUsNzcuMDQ2OSBBMi41LDIuNSAwIDAgMSA1MzIsNzkuNTQ2OSBMNTMyLDE1MS4yNSBBMi41LDIuNSAwIDAgMSA1MjkuNSwxNTMuNzUgTDMzMy41LDE1My43NSBBMi41LDIuNSAwIDAgMSAzMzEsMTUxLjI1IEwzMzEsNTcuMjUgQTIuNSwyLjUgMCAwIDEgMzMzLjUsNTQuNzUiLz48bGluZSB5Mj0iNzcuMDQ2OSIgeTE9Ijc3LjA0NjkiIHgyPSI0ODQuNjM1NyIgeDE9IjMzMSIgc3R5bGU9InN0cm9rZTojMDAwMDAwO3N0cm9rZS13aWR0aDoxLjU7Ii8+PHRleHQgeT0iNjkuNzQ1MSIgeD0iMzM1IiB0ZXh0TGVuZ3RoPSIxNDAuNjM1NyIgbGVuZ3RoQWRqdXN0PSJzcGFjaW5nIiBmb250LXdlaWdodD0iYm9sZCIgZm9udC1zaXplPSIxNCIgZm9udC1mYW1pbHk9InNhbnMtc2VyaWYiIGZpbGw9IiMwMDAwMDAiPkdlc3TDo28gZGUgQXRsZXRhczwvdGV4dD48L2c+PGcgaWQ9ImNsdXN0ZXJfSW5mcmFlc3RydXR1cmEiIGRhdGEtdWlkPSJlbnQwMDI2IiBkYXRhLXNvdXJjZS1saW5lPSI4MyIgZGF0YS1lbnRpdHk9IkluZnJhZXN0cnV0dXJhIiBjbGFzcz0iY2x1c3RlciI+PHBhdGggc3R5bGU9InN0cm9rZTojMDAwMDAwO3N0cm9rZS13aWR0aDoxLjU7IiBmaWxsPSJub25lIiBkPSJNNTU4LjUsNTQuNzUgTDY3MS41MjA1LDU0Ljc1IEEzLjc1LDMuNzUgMCAwIDEgNjc0LjAyMDUsNTcuMjUgTDY4MS4wMjA1LDc3LjA0NjkgTDY4MS41LDc3LjA0NjkgQTIuNSwyLjUgMCAwIDEgNjg0LDc5LjU0NjkgTDY4NCwxNTEuMjUgQTIuNSwyLjUgMCAwIDEgNjgxLjUsMTUzLjc1IEw1NTguNSwxNTMuNzUgQTIuNSwyLjUgMCAwIDEgNTU2LDE1MS4yNSBMNTU2LDU3LjI1IEEyLjUsMi41IDAgMCAxIDU1OC41LDU0Ljc1Ii8+PGxpbmUgeTI9Ijc3LjA0NjkiIHkxPSI3Ny4wNDY5IiB4Mj0iNjgxLjAyMDUiIHgxPSI1NTYiIHN0eWxlPSJzdHJva2U6IzAwMDAwMDtzdHJva2Utd2lkdGg6MS41OyIvPjx0ZXh0IHk9IjY5Ljc0NTEiIHg9IjU2MCIgdGV4dExlbmd0aD0iMTEyLjAyMDUiIGxlbmd0aEFkanVzdD0ic3BhY2luZyIgZm9udC13ZWlnaHQ9ImJvbGQiIGZvbnQtc2l6ZT0iMTQiIGZvbnQtZmFtaWx5PSJzYW5zLXNlcmlmIiBmaWxsPSIjMDAwMDAwIj5JbmZyYWVzdHJ1dHVyYTwvdGV4dD48L2c+PGcgaWQ9ImVudGl0eV9Db21wZXRpY2FvIiBkYXRhLXVpZD0iZW50MDAwMyIgZGF0YS1zb3VyY2UtbGluZT0iMyIgZGF0YS1lbnRpdHk9IkNvbXBldGljYW8iIGNsYXNzPSJlbnRpdHkiPjxyZWN0IHk9IjIzOC40OSIgeD0iODY2LjE4IiB3aWR0aD0iMzAzLjY0ODQiIHN0eWxlPSJzdHJva2U6IzE4MTgxODtzdHJva2Utd2lkdGg6MC41OyIgcnk9IjIuNSIgcng9IjIuNSIgaGVpZ2h0PSIxOTQuNjcxOSIgZmlsbD0iI0YxRjFGMSIvPjxlbGxpcHNlIHN0eWxlPSJzdHJva2U6IzE4MTgxODtzdHJva2Utd2lkdGg6MTsiIHJ5PSIxMSIgcng9IjExIiBmaWxsPSIjQUREMUIyIiBjeT0iMjU0LjQ5IiBjeD0iOTcxLjkwNDYiLz48cGF0aCBmaWxsPSIjMDAwMDAwIiBkPSJNOTc0Ljg3MzQsMjYwLjEzMDYgUTk3NC4yOTUyLDI2MC40Mjc1IDk3My42NTQ2LDI2MC41NjgxIFE5NzMuMDE0LDI2MC43MjQ0IDk3Mi4zMTA5LDI2MC43MjQ0IFE5NjkuODEwOSwyNjAuNzI0NCA5NjguNDgyNywyNTkuMDgzOCBROTY3LjE3MDIsMjU3LjQyNzUgOTY3LjE3MDIsMjU0LjMwMjUgUTk2Ny4xNzAyLDI1MS4xNzc1IDk2OC40ODI3LDI0OS41MjEzIFE5NjkuODEwOSwyNDcuODY1IDk3Mi4zMTA5LDI0Ny44NjUgUTk3My4wMTQsMjQ3Ljg2NSA5NzMuNjU0NiwyNDguMDIxMyBROTc0LjMxMDksMjQ4LjE3NzUgOTc0Ljg3MzQsMjQ4LjQ3NDQgTDk3NC44NzM0LDI1MS4xOTMxIFE5NzQuMjQ4NCwyNTAuNjE1IDk3My42NTQ2LDI1MC4zNDk0IFE5NzMuMDYwOSwyNTAuMDY4MSA5NzIuNDM1OSwyNTAuMDY4MSBROTcxLjA5MjEsMjUwLjA2ODEgOTcwLjQwNDYsMjUxLjE0NjMgUTk2OS43MTcxLDI1Mi4yMDg4IDk2OS43MTcxLDI1NC4zMDI1IFE5NjkuNzE3MSwyNTYuMzk2MyA5NzAuNDA0NiwyNTcuNDc0NCBROTcxLjA5MjEsMjU4LjUzNjkgOTcyLjQzNTksMjU4LjUzNjkgUTk3My4wNjA5LDI1OC41MzY5IDk3My42NTQ2LDI1OC4yNzEzIFE5NzQuMjQ4NCwyNTcuOTkgOTc0Ljg3MzQsMjU3LjQxMTkgTDk3NC44NzM0LDI2MC4xMzA2IFoiLz48dGV4dCB5PSIyNTkuMzM2NyIgeD0iOTkyLjQwNDYiIHRleHRMZW5ndGg9IjgzLjY5OTIiIGxlbmd0aEFkanVzdD0ic3BhY2luZyIgZm9udC1zaXplPSIxNCIgZm9udC1mYW1pbHk9InNhbnMtc2VyaWYiIGZpbGw9IiMwMDAwMDAiPkNvbXBldGljYW88L3RleHQ+PGxpbmUgeTI9IjI3MC40OSIgeTE9IjI3MC40OSIgeDI9IjExNjguODI4NCIgeDE9Ijg2Ny4xOCIgc3R5bGU9InN0cm9rZTojMTgxODE4O3N0cm9rZS13aWR0aDowLjU7Ii8+PGVsbGlwc2Ugc3R5bGU9InN0cm9rZTojMDM4MDQ4O3N0cm9rZS13aWR0aDoxOyIgcnk9IjMiIHJ4PSIzIiBmaWxsPSJub25lIiBjeT0iMjg0LjEzODQiIGN4PSI4NzcuMTgiLz48dGV4dCB5PSIyODcuNDg1MSIgeD0iODg2LjE4IiB0ZXh0TGVuZ3RoPSI5MC42Mzc3IiBsZW5ndGhBZGp1c3Q9InNwYWNpbmciIGZvbnQtc2l6ZT0iMTQiIGZvbnQtZmFtaWx5PSJzYW5zLXNlcmlmIiBmaWxsPSIjMDAwMDAwIj5ub21lOiBTdHJpbmc8L3RleHQ+PGVsbGlwc2Ugc3R5bGU9InN0cm9rZTojMDM4MDQ4O3N0cm9rZS13aWR0aDoxOyIgcnk9IjMiIHJ4PSIzIiBmaWxsPSJub25lIiBjeT0iMzAwLjQzNTMiIGN4PSI4NzcuMTgiLz48dGV4dCB5PSIzMDMuNzgyIiB4PSI4ODYuMTgiIHRleHRMZW5ndGg9Ijc0LjE2MzEiIGxlbmd0aEFkanVzdD0ic3BhY2luZyIgZm9udC1zaXplPSIxNCIgZm9udC1mYW1pbHk9InNhbnMtc2VyaWYiIGZpbGw9IiMwMDAwMDAiPmRhdGE6IERhdGU8L3RleHQ+PGVsbGlwc2Ugc3R5bGU9InN0cm9rZTojMDM4MDQ4O3N0cm9rZS13aWR0aDoxOyIgcnk9IjMiIHJ4PSIzIiBmaWxsPSJub25lIiBjeT0iMzE2LjczMjIiIGN4PSI4NzcuMTgiLz48dGV4dCB5PSIzMjAuMDc4OSIgeD0iODg2LjE4IiB0ZXh0TGVuZ3RoPSI5My44NDM4IiBsZW5ndGhBZGp1c3Q9InNwYWNpbmciIGZvbnQtc2l6ZT0iMTQiIGZvbnQtZmFtaWx5PSJzYW5zLXNlcmlmIiBmaWxsPSIjMDAwMDAwIj5ob3JhcmlvOiBUaW1lPC90ZXh0PjxlbGxpcHNlIHN0eWxlPSJzdHJva2U6IzAzODA0ODtzdHJva2Utd2lkdGg6MTsiIHJ5PSIzIiByeD0iMyIgZmlsbD0ibm9uZSIgY3k9IjMzMy4wMjkxIiBjeD0iODc3LjE4Ii8+PHRleHQgeT0iMzM2LjM3NTciIHg9Ijg4Ni4xOCIgdGV4dExlbmd0aD0iNzguMzE5MyIgbGVuZ3RoQWRqdXN0PSJzcGFjaW5nIiBmb250LXNpemU9IjE0IiBmb250LWZhbWlseT0ic2Fucy1zZXJpZiIgZmlsbD0iIzAwMDAwMCI+bG9jYWw6IExvY2FsPC90ZXh0PjxlbGxpcHNlIHN0eWxlPSJzdHJva2U6IzAzODA0ODtzdHJva2Utd2lkdGg6MTsiIHJ5PSIzIiByeD0iMyIgZmlsbD0ibm9uZSIgY3k9IjM0OS4zMjU5IiBjeD0iODc3LjE4Ii8+PHRleHQgeT0iMzUyLjY3MjYiIHg9Ijg4Ni4xOCIgdGV4dExlbmd0aD0iMTQ2LjY3MTkiIGxlbmd0aEFkanVzdD0ic3BhY2luZyIgZm9udC1zaXplPSIxNCIgZm9udC1mYW1pbHk9InNhbnMtc2VyaWYiIGZpbGw9IiMwMDAwMDAiPmF0bGV0YXM6IExpc3QmbHQ7QXRsZXRhJmd0OzwvdGV4dD48ZWxsaXBzZSBzdHlsZT0ic3Ryb2tlOiMwMzgwNDg7c3Ryb2tlLXdpZHRoOjE7IiByeT0iMyIgcng9IjMiIGZpbGw9Im5vbmUiIGN5PSIzNjUuNjIyOCIgY3g9Ijg3Ny4xOCIvPjx0ZXh0IHk9IjM2OC45Njk1IiB4PSI4ODYuMTgiIHRleHRMZW5ndGg9IjE0NS4wMzEzIiBsZW5ndGhBZGp1c3Q9InNwYWNpbmciIGZvbnQtc2l6ZT0iMTQiIGZvbnQtZmFtaWx5PSJzYW5zLXNlcmlmIiBmaWxsPSIjMDAwMDAwIj5yZXN1bHRhZG86IFJlc3VsdGFkbzwvdGV4dD48ZWxsaXBzZSBzdHlsZT0ic3Ryb2tlOiMwMzgwNDg7c3Ryb2tlLXdpZHRoOjE7IiByeT0iMyIgcng9IjMiIGZpbGw9Im5vbmUiIGN5PSIzODEuOTE5NyIgY3g9Ijg3Ny4xOCIvPjx0ZXh0IHk9IjM4NS4yNjY0IiB4PSI4ODYuMTgiIHRleHRMZW5ndGg9IjkzLjk2NjgiIGxlbmd0aEFkanVzdD0ic3BhY2luZyIgZm9udC1zaXplPSIxNCIgZm9udC1mYW1pbHk9InNhbnMtc2VyaWYiIGZpbGw9IiMwMDAwMDAiPnN0YXR1czogU3RyaW5nPC90ZXh0PjxsaW5lIHkyPSIzOTIuNTY4MSIgeTE9IjM5Mi41NjgxIiB4Mj0iMTE2OC44Mjg0IiB4MT0iODY3LjE4IiBzdHlsZT0ic3Ryb2tlOiMxODE4MTg7c3Ryb2tlLXdpZHRoOjAuNTsiLz48ZWxsaXBzZSBzdHlsZT0ic3Ryb2tlOiMwMzgwNDg7c3Ryb2tlLXdpZHRoOjE7IiByeT0iMyIgcng9IjMiIGZpbGw9IiM4NEJFODQiIGN5PSI0MDYuMjE2NiIgY3g9Ijg3Ny4xOCIvPjx0ZXh0IHk9IjQwOS41NjMyIiB4PSI4ODYuMTgiIHRleHRMZW5ndGg9IjIwMC4wMzMyIiBsZW5ndGhBZGp1c3Q9InNwYWNpbmciIGZvbnQtc2l6ZT0iMTQiIGZvbnQtZmFtaWx5PSJzYW5zLXNlcmlmIiBmaWxsPSIjMDAwMDAwIj5jYWRhc3RyYXJDb21wZXRpY2FvKCk6IHZvaWQ8L3RleHQ+PGVsbGlwc2Ugc3R5bGU9InN0cm9rZTojMDM4MDQ4O3N0cm9rZS13aWR0aDoxOyIgcnk9IjMiIHJ4PSIzIiBmaWxsPSIjODRCRTg0IiBjeT0iNDIyLjUxMzQiIGN4PSI4NzcuMTgiLz48dGV4dCB5PSI0MjUuODYwMSIgeD0iODg2LjE4IiB0ZXh0TGVuZ3RoPSIyNzcuNjQ4NCIgbGVuZ3RoQWRqdXN0PSJzcGFjaW5nIiBmb250LXNpemU9IjE0IiBmb250LWZhbWlseT0ic2Fucy1zZXJpZiIgZmlsbD0iIzAwMDAwMCI+bGlzdGFyQ29tcGV0aWNvZXMoKTogTGlzdCZsdDtDb21wZXRpY2FvJmd0OzwvdGV4dD48L2c+PGcgaWQ9ImVudGl0eV9JbnNjcmljYW8iIGRhdGEtdWlkPSJlbnQwMDA0IiBkYXRhLXNvdXJjZS1saW5lPSIxNSIgZGF0YS1lbnRpdHk9Ikluc2NyaWNhbyIgY2xhc3M9ImVudGl0eSI+PHJlY3QgeT0iNDkiIHg9Ijg5MC4wNiIgd2lkdGg9IjIwNS44ODA5IiBzdHlsZT0ic3Ryb2tlOiMxODE4MTg7c3Ryb2tlLXdpZHRoOjAuNTsiIHJ5PSIyLjUiIHJ4PSIyLjUiIGhlaWdodD0iMTI5LjQ4NDQiIGZpbGw9IiNGMUYxRjEiLz48ZWxsaXBzZSBzdHlsZT0ic3Ryb2tlOiMxODE4MTg7c3Ryb2tlLXdpZHRoOjE7IiByeT0iMTEiIHJ4PSIxMSIgZmlsbD0iI0FERDFCMiIgY3k9IjY1IiBjeD0iOTU3LjUxMDIiLz48cGF0aCBmaWxsPSIjMDAwMDAwIiBkPSJNOTYwLjQ3ODksNzAuNjQwNiBROTU5LjkwMDgsNzAuOTM3NSA5NTkuMjYwMiw3MS4wNzgxIFE5NTguNjE5Niw3MS4yMzQ0IDk1Ny45MTY0LDcxLjIzNDQgUTk1NS40MTY0LDcxLjIzNDQgOTU0LjA4ODMsNjkuNTkzOCBROTUyLjc3NTgsNjcuOTM3NSA5NTIuNzc1OCw2NC44MTI1IFE5NTIuNzc1OCw2MS42ODc1IDk1NC4wODgzLDYwLjAzMTMgUTk1NS40MTY0LDU4LjM3NSA5NTcuOTE2NCw1OC4zNzUgUTk1OC42MTk2LDU4LjM3NSA5NTkuMjYwMiw1OC41MzEzIFE5NTkuOTE2NCw1OC42ODc1IDk2MC40Nzg5LDU4Ljk4NDQgTDk2MC40Nzg5LDYxLjcwMzEgUTk1OS44NTM5LDYxLjEyNSA5NTkuMjYwMiw2MC44NTk0IFE5NTguNjY2NCw2MC41NzgxIDk1OC4wNDE0LDYwLjU3ODEgUTk1Ni42OTc3LDYwLjU3ODEgOTU2LjAxMDIsNjEuNjU2MyBROTU1LjMyMjcsNjIuNzE4OCA5NTUuMzIyNyw2NC44MTI1IFE5NTUuMzIyNyw2Ni45MDYzIDk1Ni4wMTAyLDY3Ljk4NDQgUTk1Ni42OTc3LDY5LjA0NjkgOTU4LjA0MTQsNjkuMDQ2OSBROTU4LjY2NjQsNjkuMDQ2OSA5NTkuMjYwMiw2OC43ODEzIFE5NTkuODUzOSw2OC41IDk2MC40Nzg5LDY3LjkyMTkgTDk2MC40Nzg5LDcwLjY0MDYgWiIvPjx0ZXh0IHk9IjY5Ljg0NjciIHg9Ijk3OC4wMTAyIiB0ZXh0TGVuZ3RoPSI2Mi40ODA1IiBsZW5ndGhBZGp1c3Q9InNwYWNpbmciIGZvbnQtc2l6ZT0iMTQiIGZvbnQtZmFtaWx5PSJzYW5zLXNlcmlmIiBmaWxsPSIjMDAwMDAwIj5JbnNjcmljYW88L3RleHQ+PGxpbmUgeTI9IjgxIiB5MT0iODEiIHgyPSIxMDk0Ljk0MDkiIHgxPSI4OTEuMDYiIHN0eWxlPSJzdHJva2U6IzE4MTgxODtzdHJva2Utd2lkdGg6MC41OyIvPjxlbGxpcHNlIHN0eWxlPSJzdHJva2U6IzAzODA0ODtzdHJva2Utd2lkdGg6MTsiIHJ5PSIzIiByeD0iMyIgZmlsbD0ibm9uZSIgY3k9Ijk0LjY0ODQiIGN4PSI5MDEuMDYiLz48dGV4dCB5PSI5Ny45OTUxIiB4PSI5MTAuMDYiIHRleHRMZW5ndGg9IjkxLjQ0NDMiIGxlbmd0aEFkanVzdD0ic3BhY2luZyIgZm9udC1zaXplPSIxNCIgZm9udC1mYW1pbHk9InNhbnMtc2VyaWYiIGZpbGw9IiMwMDAwMDAiPmF0bGV0YTogQXRsZXRhPC90ZXh0PjxlbGxpcHNlIHN0eWxlPSJzdHJva2U6IzAzODA0ODtzdHJva2Utd2lkdGg6MTsiIHJ5PSIzIiByeD0iMyIgZmlsbD0ibm9uZSIgY3k9IjExMC45NDUzIiBjeD0iOTAxLjA2Ii8+PHRleHQgeT0iMTE0LjI5MiIgeD0iOTEwLjA2IiB0ZXh0TGVuZ3RoPSIxNzQuNDg3MyIgbGVuZ3RoQWRqdXN0PSJzcGFjaW5nIiBmb250LXNpemU9IjE0IiBmb250LWZhbWlseT0ic2Fucy1zZXJpZiIgZmlsbD0iIzAwMDAwMCI+Y29tcGV0aWNhbzogQ29tcGV0aWNhbzwvdGV4dD48ZWxsaXBzZSBzdHlsZT0ic3Ryb2tlOiMwMzgwNDg7c3Ryb2tlLXdpZHRoOjE7IiByeT0iMyIgcng9IjMiIGZpbGw9Im5vbmUiIGN5PSIxMjcuMjQyMiIgY3g9IjkwMS4wNiIvPjx0ZXh0IHk9IjEzMC41ODg5IiB4PSI5MTAuMDYiIHRleHRMZW5ndGg9IjkzLjk2NjgiIGxlbmd0aEFkanVzdD0ic3BhY2luZyIgZm9udC1zaXplPSIxNCIgZm9udC1mYW1pbHk9InNhbnMtc2VyaWYiIGZpbGw9IiMwMDAwMDAiPnN0YXR1czogU3RyaW5nPC90ZXh0PjxsaW5lIHkyPSIxMzcuODkwNiIgeTE9IjEzNy44OTA2IiB4Mj0iMTA5NC45NDA5IiB4MT0iODkxLjA2IiBzdHlsZT0ic3Ryb2tlOiMxODE4MTg7c3Ryb2tlLXdpZHRoOjAuNTsiLz48ZWxsaXBzZSBzdHlsZT0ic3Ryb2tlOiMwMzgwNDg7c3Ryb2tlLXdpZHRoOjE7IiByeT0iMyIgcng9IjMiIGZpbGw9IiM4NEJFODQiIGN5PSIxNTEuNTM5MSIgY3g9IjkwMS4wNiIvPjx0ZXh0IHk9IjE1NC44ODU3IiB4PSI5MTAuMDYiIHRleHRMZW5ndGg9IjE3OS44ODA5IiBsZW5ndGhBZGp1c3Q9InNwYWNpbmciIGZvbnQtc2l6ZT0iMTQiIGZvbnQtZmFtaWx5PSJzYW5zLXNlcmlmIiBmaWxsPSIjMDAwMDAwIj5jb25maXJtYXJJbnNjcmljYW8oKTogdm9pZDwvdGV4dD48ZWxsaXBzZSBzdHlsZT0ic3Ryb2tlOiMwMzgwNDg7c3Ryb2tlLXdpZHRoOjE7IiByeT0iMyIgcng9IjMiIGZpbGw9IiM4NEJFODQiIGN5PSIxNjcuODM1OSIgY3g9IjkwMS4wNiIvPjx0ZXh0IHk9IjE3MS4xODI2IiB4PSI5MTAuMDYiIHRleHRMZW5ndGg9IjE3MS44ODI4IiBsZW5ndGhBZGp1c3Q9InNwYWNpbmciIGZvbnQtc2l6ZT0iMTQiIGZvbnQtZmFtaWx5PSJzYW5zLXNlcmlmIiBmaWxsPSIjMDAwMDAwIj5jYW5jZWxhckluc2NyaWNhbygpOiB2b2lkPC90ZXh0PjwvZz48ZyBpZD0iZW50aXR5X1Jlc3VsdGFkbyIgZGF0YS11aWQ9ImVudDAwMDUiIGRhdGEtc291cmNlLWxpbmU9IjIzIiBkYXRhLWVudGl0eT0iUmVzdWx0YWRvIiBjbGFzcz0iZW50aXR5Ij48cmVjdCB5PSI0OTMuMTYiIHg9Ijg2Ni40MSIgd2lkdGg9IjI0My4xNzc3IiBzdHlsZT0ic3Ryb2tlOiMxODE4MTg7c3Ryb2tlLXdpZHRoOjAuNTsiIHJ5PSIyLjUiIHJ4PSIyLjUiIGhlaWdodD0iMTI5LjQ4NDQiIGZpbGw9IiNGMUYxRjEiLz48ZWxsaXBzZSBzdHlsZT0ic3Ryb2tlOiMxODE4MTg7c3Ryb2tlLXdpZHRoOjE7IiByeT0iMTEiIHJ4PSIxMSIgZmlsbD0iI0FERDFCMiIgY3k9IjUwOS4xNiIgY3g9Ijk0OC43ODk5Ii8+PHBhdGggZmlsbD0iIzAwMDAwMCIgZD0iTTk1MS43NTg2LDUxNC44MDA2IFE5NTEuMTgwNSw1MTUuMDk3NSA5NTAuNTM5OSw1MTUuMjM4MSBROTQ5Ljg5OTMsNTE1LjM5NDQgOTQ5LjE5NjEsNTE1LjM5NDQgUTk0Ni42OTYxLDUxNS4zOTQ0IDk0NS4zNjgsNTEzLjc1MzggUTk0NC4wNTU1LDUxMi4wOTc1IDk0NC4wNTU1LDUwOC45NzI1IFE5NDQuMDU1NSw1MDUuODQ3NSA5NDUuMzY4LDUwNC4xOTEzIFE5NDYuNjk2MSw1MDIuNTM1IDk0OS4xOTYxLDUwMi41MzUgUTk0OS44OTkzLDUwMi41MzUgOTUwLjUzOTksNTAyLjY5MTMgUTk1MS4xOTYxLDUwMi44NDc1IDk1MS43NTg2LDUwMy4xNDQ0IEw5NTEuNzU4Niw1MDUuODYzMSBROTUxLjEzMzYsNTA1LjI4NSA5NTAuNTM5OSw1MDUuMDE5NCBROTQ5Ljk0NjEsNTA0LjczODEgOTQ5LjMyMTEsNTA0LjczODEgUTk0Ny45Nzc0LDUwNC43MzgxIDk0Ny4yODk5LDUwNS44MTYzIFE5NDYuNjAyNCw1MDYuODc4OCA5NDYuNjAyNCw1MDguOTcyNSBROTQ2LjYwMjQsNTExLjA2NjMgOTQ3LjI4OTksNTEyLjE0NDQgUTk0Ny45Nzc0LDUxMy4yMDY5IDk0OS4zMjExLDUxMy4yMDY5IFE5NDkuOTQ2MSw1MTMuMjA2OSA5NTAuNTM5OSw1MTIuOTQxMyBROTUxLjEzMzYsNTEyLjY2IDk1MS43NTg2LDUxMi4wODE5IEw5NTEuNzU4Niw1MTQuODAwNiBaIi8+PHRleHQgeT0iNTE0LjAwNjciIHg9Ijk2OS4yODk5IiB0ZXh0TGVuZ3RoPSI2OS45MTgiIGxlbmd0aEFkanVzdD0ic3BhY2luZyIgZm9udC1zaXplPSIxNCIgZm9udC1mYW1pbHk9InNhbnMtc2VyaWYiIGZpbGw9IiMwMDAwMDAiPlJlc3VsdGFkbzwvdGV4dD48bGluZSB5Mj0iNTI1LjE2IiB5MT0iNTI1LjE2IiB4Mj0iMTEwOC41ODc3IiB4MT0iODY3LjQxIiBzdHlsZT0ic3Ryb2tlOiMxODE4MTg7c3Ryb2tlLXdpZHRoOjAuNTsiLz48ZWxsaXBzZSBzdHlsZT0ic3Ryb2tlOiMwMzgwNDg7c3Ryb2tlLXdpZHRoOjE7IiByeT0iMyIgcng9IjMiIGZpbGw9Im5vbmUiIGN5PSI1MzguODA4NCIgY3g9Ijg3Ny40MSIvPjx0ZXh0IHk9IjU0Mi4xNTUxIiB4PSI4ODYuNDEiIHRleHRMZW5ndGg9IjE0OS42OTM0IiBsZW5ndGhBZGp1c3Q9InNwYWNpbmciIGZvbnQtc2l6ZT0iMTQiIGZvbnQtZmFtaWx5PSJzYW5zLXNlcmlmIiBmaWxsPSIjMDAwMDAwIj5wcmltZWlyb0x1Z2FyOiBBdGxldGE8L3RleHQ+PGVsbGlwc2Ugc3R5bGU9InN0cm9rZTojMDM4MDQ4O3N0cm9rZS13aWR0aDoxOyIgcnk9IjMiIHJ4PSIzIiBmaWxsPSJub25lIiBjeT0iNTU1LjEwNTMiIGN4PSI4NzcuNDEiLz48dGV4dCB5PSI1NTguNDUyIiB4PSI4ODYuNDEiIHRleHRMZW5ndGg9IjE1MC42OTE0IiBsZW5ndGhBZGp1c3Q9InNwYWNpbmciIGZvbnQtc2l6ZT0iMTQiIGZvbnQtZmFtaWx5PSJzYW5zLXNlcmlmIiBmaWxsPSIjMDAwMDAwIj5zZWd1bmRvTHVnYXI6IEF0bGV0YTwvdGV4dD48ZWxsaXBzZSBzdHlsZT0ic3Ryb2tlOiMwMzgwNDg7c3Ryb2tlLXdpZHRoOjE7IiByeT0iMyIgcng9IjMiIGZpbGw9Im5vbmUiIGN5PSI1NzEuNDAyMiIgY3g9Ijg3Ny40MSIvPjx0ZXh0IHk9IjU3NC43NDg5IiB4PSI4ODYuNDEiIHRleHRMZW5ndGg9IjE0NS4wNzkxIiBsZW5ndGhBZGp1c3Q9InNwYWNpbmciIGZvbnQtc2l6ZT0iMTQiIGZvbnQtZmFtaWx5PSJzYW5zLXNlcmlmIiBmaWxsPSIjMDAwMDAwIj50ZXJjZWlyb0x1Z2FyOiBBdGxldGE8L3RleHQ+PGxpbmUgeTI9IjU4Mi4wNTA2IiB5MT0iNTgyLjA1MDYiIHgyPSIxMTA4LjU4NzciIHgxPSI4NjcuNDEiIHN0eWxlPSJzdHJva2U6IzE4MTgxODtzdHJva2Utd2lkdGg6MC41OyIvPjxlbGxpcHNlIHN0eWxlPSJzdHJva2U6IzAzODA0ODtzdHJva2Utd2lkdGg6MTsiIHJ5PSIzIiByeD0iMyIgZmlsbD0iIzg0QkU4NCIgY3k9IjU5NS42OTkxIiBjeD0iODc3LjQxIi8+PHRleHQgeT0iNTk5LjA0NTciIHg9Ijg4Ni40MSIgdGV4dExlbmd0aD0iMTc5LjY1NTMiIGxlbmd0aEFkanVzdD0ic3BhY2luZyIgZm9udC1zaXplPSIxNCIgZm9udC1mYW1pbHk9InNhbnMtc2VyaWYiIGZpbGw9IiMwMDAwMDAiPnJlZ2lzdHJhclJlc3VsdGFkbygpOiB2b2lkPC90ZXh0PjxlbGxpcHNlIHN0eWxlPSJzdHJva2U6IzAzODA0ODtzdHJva2Utd2lkdGg6MTsiIHJ5PSIzIiByeD0iMyIgZmlsbD0iIzg0QkU4NCIgY3k9IjYxMS45OTU5IiBjeD0iODc3LjQxIi8+PHRleHQgeT0iNjE1LjM0MjYiIHg9Ijg4Ni40MSIgdGV4dExlbmd0aD0iMjE3LjE3NzciIGxlbmd0aEFkanVzdD0ic3BhY2luZyIgZm9udC1zaXplPSIxNCIgZm9udC1mYW1pbHk9InNhbnMtc2VyaWYiIGZpbGw9IiMwMDAwMDAiPmdlcmFyUmVsYXRvcmlvTWVkYWxoYXMoKTogdm9pZDwvdGV4dD48L2c+PGcgaWQ9ImVudGl0eV9BdGxldGEiIGRhdGEtdWlkPSJlbnQwMDA3IiBkYXRhLXNvdXJjZS1saW5lPSIzMyIgZGF0YS1lbnRpdHk9IkF0bGV0YSIgY2xhc3M9ImVudGl0eSI+PHJlY3QgeT0iNzI5LjY0IiB4PSI3NDkuMTMiIHdpZHRoPSIyNTUuNzQ5IiBzdHlsZT0ic3Ryb2tlOiMxODE4MTg7c3Ryb2tlLXdpZHRoOjAuNTsiIHJ5PSIyLjUiIHJ4PSIyLjUiIGhlaWdodD0iMTQ1Ljc4MTMiIGZpbGw9IiNGMUYxRjEiLz48ZWxsaXBzZSBzdHlsZT0ic3Ryb2tlOiMxODE4MTg7c3Ryb2tlLXdpZHRoOjE7IiByeT0iMTEiIHJ4PSIxMSIgZmlsbD0iI0FERDFCMiIgY3k9Ijc0NS42NCIgY3g9Ijg1MS45MzU3Ii8+PHBhdGggZmlsbD0iIzAwMDAwMCIgZD0iTTg1NC45MDQ0LDc1MS4yODA2IFE4NTQuMzI2Myw3NTEuNTc3NSA4NTMuNjg1Nyw3NTEuNzE4MSBRODUzLjA0NSw3NTEuODc0NCA4NTIuMzQxOSw3NTEuODc0NCBRODQ5Ljg0MTksNzUxLjg3NDQgODQ4LjUxMzgsNzUwLjIzMzggUTg0Ny4yMDEzLDc0OC41Nzc1IDg0Ny4yMDEzLDc0NS40NTI1IFE4NDcuMjAxMyw3NDIuMzI3NSA4NDguNTEzOCw3NDAuNjcxMyBRODQ5Ljg0MTksNzM5LjAxNSA4NTIuMzQxOSw3MzkuMDE1IFE4NTMuMDQ1LDczOS4wMTUgODUzLjY4NTcsNzM5LjE3MTMgUTg1NC4zNDE5LDczOS4zMjc1IDg1NC45MDQ0LDczOS42MjQ0IEw4NTQuOTA0NCw3NDIuMzQzMSBRODU0LjI3OTQsNzQxLjc2NSA4NTMuNjg1Nyw3NDEuNDk5NCBRODUzLjA5MTksNzQxLjIxODEgODUyLjQ2NjksNzQxLjIxODEgUTg1MS4xMjMyLDc0MS4yMTgxIDg1MC40MzU3LDc0Mi4yOTYzIFE4NDkuNzQ4Miw3NDMuMzU4OCA4NDkuNzQ4Miw3NDUuNDUyNSBRODQ5Ljc0ODIsNzQ3LjU0NjMgODUwLjQzNTcsNzQ4LjYyNDQgUTg1MS4xMjMyLDc0OS42ODY5IDg1Mi40NjY5LDc0OS42ODY5IFE4NTMuMDkxOSw3NDkuNjg2OSA4NTMuNjg1Nyw3NDkuNDIxMyBRODU0LjI3OTQsNzQ5LjE0IDg1NC45MDQ0LDc0OC41NjE5IEw4NTQuOTA0NCw3NTEuMjgwNiBaIi8+PHRleHQgeT0iNzUwLjQ4NjciIHg9Ijg3Mi40MzU3IiB0ZXh0TGVuZ3RoPSI0MS42Mzc3IiBsZW5ndGhBZGp1c3Q9InNwYWNpbmciIGZvbnQtc2l6ZT0iMTQiIGZvbnQtZmFtaWx5PSJzYW5zLXNlcmlmIiBmaWxsPSIjMDAwMDAwIj5BdGxldGE8L3RleHQ+PGxpbmUgeTI9Ijc2MS42NCIgeTE9Ijc2MS42NCIgeDI9IjEwMDMuODc5IiB4MT0iNzUwLjEzIiBzdHlsZT0ic3Ryb2tlOiMxODE4MTg7c3Ryb2tlLXdpZHRoOjAuNTsiLz48ZWxsaXBzZSBzdHlsZT0ic3Ryb2tlOiMwMzgwNDg7c3Ryb2tlLXdpZHRoOjE7IiByeT0iMyIgcng9IjMiIGZpbGw9Im5vbmUiIGN5PSI3NzUuMjg4NCIgY3g9Ijc2MC4xMyIvPjx0ZXh0IHk9Ijc3OC42MzUxIiB4PSI3NjkuMTMiIHRleHRMZW5ndGg9IjkwLjYzNzciIGxlbmd0aEFkanVzdD0ic3BhY2luZyIgZm9udC1zaXplPSIxNCIgZm9udC1mYW1pbHk9InNhbnMtc2VyaWYiIGZpbGw9IiMwMDAwMDAiPm5vbWU6IFN0cmluZzwvdGV4dD48ZWxsaXBzZSBzdHlsZT0ic3Ryb2tlOiMwMzgwNDg7c3Ryb2tlLXdpZHRoOjE7IiByeT0iMyIgcng9IjMiIGZpbGw9Im5vbmUiIGN5PSI3OTEuNTg1MyIgY3g9Ijc2MC4xMyIvPjx0ZXh0IHk9Ijc5NC45MzIiIHg9Ijc2OS4xMyIgdGV4dExlbmd0aD0iNjYuMjc0NCIgbGVuZ3RoQWRqdXN0PSJzcGFjaW5nIiBmb250LXNpemU9IjE0IiBmb250LWZhbWlseT0ic2Fucy1zZXJpZiIgZmlsbD0iIzAwMDAwMCI+aWRhZGU6IGludDwvdGV4dD48ZWxsaXBzZSBzdHlsZT0ic3Ryb2tlOiMwMzgwNDg7c3Ryb2tlLXdpZHRoOjE7IiByeT0iMyIgcng9IjMiIGZpbGw9Im5vbmUiIGN5PSI4MDcuODgyMiIgY3g9Ijc2MC4xMyIvPjx0ZXh0IHk9IjgxMS4yMjg5IiB4PSI3NjkuMTMiIHRleHRMZW5ndGg9IjY2LjAyMTUiIGxlbmd0aEFkanVzdD0ic3BhY2luZyIgZm9udC1zaXplPSIxNCIgZm9udC1mYW1pbHk9InNhbnMtc2VyaWYiIGZpbGw9IiMwMDAwMDAiPnBhaXM6IFBhaXM8L3RleHQ+PGVsbGlwc2Ugc3R5bGU9InN0cm9rZTojMDM4MDQ4O3N0cm9rZS13aWR0aDoxOyIgcnk9IjMiIHJ4PSIzIiBmaWxsPSJub25lIiBjeT0iODI0LjE3OTEiIGN4PSI3NjAuMTMiLz48dGV4dCB5PSI4MjcuNTI1NyIgeD0iNzY5LjEzIiB0ZXh0TGVuZ3RoPSIyMjkuNzQ5IiBsZW5ndGhBZGp1c3Q9InNwYWNpbmciIGZvbnQtc2l6ZT0iMTQiIGZvbnQtZmFtaWx5PSJzYW5zLXNlcmlmIiBmaWxsPSIjMDAwMDAwIj5jb21wZXRpY29lczogTGlzdCZsdDtDb21wZXRpY2FvJmd0OzwvdGV4dD48bGluZSB5Mj0iODM0LjgyNzUiIHkxPSI4MzQuODI3NSIgeDI9IjEwMDMuODc5IiB4MT0iNzUwLjEzIiBzdHlsZT0ic3Ryb2tlOiMxODE4MTg7c3Ryb2tlLXdpZHRoOjAuNTsiLz48ZWxsaXBzZSBzdHlsZT0ic3Ryb2tlOiMwMzgwNDg7c3Ryb2tlLXdpZHRoOjE7IiByeT0iMyIgcng9IjMiIGZpbGw9IiM4NEJFODQiIGN5PSI4NDguNDc1OSIgY3g9Ijc2MC4xMyIvPjx0ZXh0IHk9Ijg1MS44MjI2IiB4PSI3NjkuMTMiIHRleHRMZW5ndGg9IjExNC40OTUxIiBsZW5ndGhBZGp1c3Q9InNwYWNpbmciIGZvbnQtc2l6ZT0iMTQiIGZvbnQtZmFtaWx5PSJzYW5zLXNlcmlmIiBmaWxsPSIjMDAwMDAwIj5pbnNjcmV2ZXIoKTogdm9pZDwvdGV4dD48ZWxsaXBzZSBzdHlsZT0ic3Ryb2tlOiMwMzgwNDg7c3Ryb2tlLXdpZHRoOjE7IiByeT0iMyIgcng9IjMiIGZpbGw9IiM4NEJFODQiIGN5PSI4NjQuNzcyOCIgY3g9Ijc2MC4xMyIvPjx0ZXh0IHk9Ijg2OC4xMTk1IiB4PSI3NjkuMTMiIHRleHRMZW5ndGg9IjE4NC42NTIzIiBsZW5ndGhBZGp1c3Q9InNwYWNpbmciIGZvbnQtc2l6ZT0iMTQiIGZvbnQtZmFtaWx5PSJzYW5zLXNlcmlmIiBmaWxsPSIjMDAwMDAwIj5jb25zdWx0YXJSZXN1bHRhZG8oKTogdm9pZDwvdGV4dD48L2c+PGcgaWQ9ImVudGl0eV9QYWlzIiBkYXRhLXVpZD0iZW50MDAwOCIgZGF0YS1zb3VyY2UtbGluZT0iNDIiIGRhdGEtZW50aXR5PSJQYWlzIiBjbGFzcz0iZW50aXR5Ij48cmVjdCB5PSI5NDIuNDMiIHg9Ijc3NS4yNSIgd2lkdGg9IjIwMy40OTUxIiBzdHlsZT0ic3Ryb2tlOiMxODE4MTg7c3Ryb2tlLXdpZHRoOjAuNTsiIHJ5PSIyLjUiIHJ4PSIyLjUiIGhlaWdodD0iMTI5LjQ4NDQiIGZpbGw9IiNGMUYxRjEiLz48ZWxsaXBzZSBzdHlsZT0ic3Ryb2tlOiMxODE4MTg7c3Ryb2tlLXdpZHRoOjE7IiByeT0iMTEiIHJ4PSIxMSIgZmlsbD0iI0FERDFCMiIgY3k9Ijk1OC40MyIgY3g9Ijg1OC42NDUiLz48cGF0aCBmaWxsPSIjMDAwMDAwIiBkPSJNODYxLjYxMzgsOTY0LjA3MDYgUTg2MS4wMzU2LDk2NC4zNjc1IDg2MC4zOTUsOTY0LjUwODEgUTg1OS43NTQ0LDk2NC42NjQ0IDg1OS4wNTEzLDk2NC42NjQ0IFE4NTYuNTUxMyw5NjQuNjY0NCA4NTUuMjIzMSw5NjMuMDIzOCBRODUzLjkxMDYsOTYxLjM2NzUgODUzLjkxMDYsOTU4LjI0MjUgUTg1My45MTA2LDk1NS4xMTc1IDg1NS4yMjMxLDk1My40NjEzIFE4NTYuNTUxMyw5NTEuODA1IDg1OS4wNTEzLDk1MS44MDUgUTg1OS43NTQ0LDk1MS44MDUgODYwLjM5NSw5NTEuOTYxMyBRODYxLjA1MTMsOTUyLjExNzUgODYxLjYxMzgsOTUyLjQxNDQgTDg2MS42MTM4LDk1NS4xMzMxIFE4NjAuOTg4OCw5NTQuNTU1IDg2MC4zOTUsOTU0LjI4OTQgUTg1OS44MDEzLDk1NC4wMDgxIDg1OS4xNzYzLDk1NC4wMDgxIFE4NTcuODMyNSw5NTQuMDA4MSA4NTcuMTQ1LDk1NS4wODYzIFE4NTYuNDU3NSw5NTYuMTQ4OCA4NTYuNDU3NSw5NTguMjQyNSBRODU2LjQ1NzUsOTYwLjMzNjMgODU3LjE0NSw5NjEuNDE0NCBRODU3LjgzMjUsOTYyLjQ3NjkgODU5LjE3NjMsOTYyLjQ3NjkgUTg1OS44MDEzLDk2Mi40NzY5IDg2MC4zOTUsOTYyLjIxMTMgUTg2MC45ODg4LDk2MS45MyA4NjEuNjEzOCw5NjEuMzUxOSBMODYxLjYxMzgsOTY0LjA3MDYgWiIvPjx0ZXh0IHk9Ijk2My4yNzY3IiB4PSI4NzkuMTQ1IiB0ZXh0TGVuZ3RoPSIyOC4yMDUxIiBsZW5ndGhBZGp1c3Q9InNwYWNpbmciIGZvbnQtc2l6ZT0iMTQiIGZvbnQtZmFtaWx5PSJzYW5zLXNlcmlmIiBmaWxsPSIjMDAwMDAwIj5QYWlzPC90ZXh0PjxsaW5lIHkyPSI5NzQuNDMiIHkxPSI5NzQuNDMiIHgyPSI5NzcuNzQ1MSIgeDE9Ijc3Ni4yNSIgc3R5bGU9InN0cm9rZTojMTgxODE4O3N0cm9rZS13aWR0aDowLjU7Ii8+PGVsbGlwc2Ugc3R5bGU9InN0cm9rZTojMDM4MDQ4O3N0cm9rZS13aWR0aDoxOyIgcnk9IjMiIHJ4PSIzIiBmaWxsPSJub25lIiBjeT0iOTg4LjA3ODQiIGN4PSI3ODYuMjUiLz48dGV4dCB5PSI5OTEuNDI1MSIgeD0iNzk1LjI1IiB0ZXh0TGVuZ3RoPSI5MC42Mzc3IiBsZW5ndGhBZGp1c3Q9InNwYWNpbmciIGZvbnQtc2l6ZT0iMTQiIGZvbnQtZmFtaWx5PSJzYW5zLXNlcmlmIiBmaWxsPSIjMDAwMDAwIj5ub21lOiBTdHJpbmc8L3RleHQ+PGVsbGlwc2Ugc3R5bGU9InN0cm9rZTojMDM4MDQ4O3N0cm9rZS13aWR0aDoxOyIgcnk9IjMiIHJ4PSIzIiBmaWxsPSJub25lIiBjeT0iMTAwNC4zNzUzIiBjeD0iNzg2LjI1Ii8+PHRleHQgeT0iMTAwNy43MjIiIHg9Ijc5NS4yNSIgdGV4dExlbmd0aD0iMTI5Ljk4NTQiIGxlbmd0aEFkanVzdD0ic3BhY2luZyIgZm9udC1zaXplPSIxNCIgZm9udC1mYW1pbHk9InNhbnMtc2VyaWYiIGZpbGw9IiMwMDAwMDAiPm1lZGFsaGFzT3VybzogaW50PC90ZXh0PjxlbGxpcHNlIHN0eWxlPSJzdHJva2U6IzAzODA0ODtzdHJva2Utd2lkdGg6MTsiIHJ5PSIzIiByeD0iMyIgZmlsbD0ibm9uZSIgY3k9IjEwMjAuNjcyMiIgY3g9Ijc4Ni4yNSIvPjx0ZXh0IHk9IjEwMjQuMDE4OSIgeD0iNzk1LjI1IiB0ZXh0TGVuZ3RoPSIxMzIuNjE3MiIgbGVuZ3RoQWRqdXN0PSJzcGFjaW5nIiBmb250LXNpemU9IjE0IiBmb250LWZhbWlseT0ic2Fucy1zZXJpZiIgZmlsbD0iIzAwMDAwMCI+bWVkYWxoYXNQcmF0YTogaW50PC90ZXh0PjxlbGxpcHNlIHN0eWxlPSJzdHJva2U6IzAzODA0ODtzdHJva2Utd2lkdGg6MTsiIHJ5PSIzIiByeD0iMyIgZmlsbD0ibm9uZSIgY3k9IjEwMzYuOTY5MSIgY3g9Ijc4Ni4yNSIvPjx0ZXh0IHk9IjEwNDAuMzE1NyIgeD0iNzk1LjI1IiB0ZXh0TGVuZ3RoPSIxNDQuNTMyMiIgbGVuZ3RoQWRqdXN0PSJzcGFjaW5nIiBmb250LXNpemU9IjE0IiBmb250LWZhbWlseT0ic2Fucy1zZXJpZiIgZmlsbD0iIzAwMDAwMCI+bWVkYWxoYXNCcm9uemU6IGludDwvdGV4dD48bGluZSB5Mj0iMTA0Ny42MTc1IiB5MT0iMTA0Ny42MTc1IiB4Mj0iOTc3Ljc0NTEiIHgxPSI3NzYuMjUiIHN0eWxlPSJzdHJva2U6IzE4MTgxODtzdHJva2Utd2lkdGg6MC41OyIvPjxlbGxpcHNlIHN0eWxlPSJzdHJva2U6IzAzODA0ODtzdHJva2Utd2lkdGg6MTsiIHJ5PSIzIiByeD0iMyIgZmlsbD0iIzg0QkU4NCIgY3k9IjEwNjEuMjY1OSIgY3g9Ijc4Ni4yNSIvPjx0ZXh0IHk9IjEwNjQuNjEyNiIgeD0iNzk1LjI1IiB0ZXh0TGVuZ3RoPSIxNzcuNDk1MSIgbGVuZ3RoQWRqdXN0PSJzcGFjaW5nIiBmb250LXNpemU9IjE0IiBmb250LWZhbWlseT0ic2Fucy1zZXJpZiIgZmlsbD0iIzAwMDAwMCI+YXR1YWxpemFyTWVkYWxoYXMoKTogdm9pZDwvdGV4dD48L2c+PGcgaWQ9ImVudGl0eV9Mb2NhbCIgZGF0YS11aWQ9ImVudDAwMTAiIGRhdGEtc291cmNlLWxpbmU9IjUyIiBkYXRhLWVudGl0eT0iTG9jYWwiIGNsYXNzPSJlbnRpdHkiPjxyZWN0IHk9Ijk0Mi40MyIgeD0iMTExMS43MSIgd2lkdGg9IjIwOC41ODc5IiBzdHlsZT0ic3Ryb2tlOiMxODE4MTg7c3Ryb2tlLXdpZHRoOjAuNTsiIHJ5PSIyLjUiIHJ4PSIyLjUiIGhlaWdodD0iMTI5LjQ4NDQiIGZpbGw9IiNGMUYxRjEiLz48ZWxsaXBzZSBzdHlsZT0ic3Ryb2tlOiMxODE4MTg7c3Ryb2tlLXdpZHRoOjE7IiByeT0iMTEiIHJ4PSIxMSIgZmlsbD0iI0FERDFCMiIgY3k9Ijk1OC40MyIgY3g9IjExOTMuNDg4MyIvPjxwYXRoIGZpbGw9IiMwMDAwMDAiIGQ9Ik0xMTk2LjQ1NzEsOTY0LjA3MDYgUTExOTUuODc4OSw5NjQuMzY3NSAxMTk1LjIzODMsOTY0LjUwODEgUTExOTQuNTk3Nyw5NjQuNjY0NCAxMTkzLjg5NDYsOTY0LjY2NDQgUTExOTEuMzk0Niw5NjQuNjY0NCAxMTkwLjA2NjQsOTYzLjAyMzggUTExODguNzUzOSw5NjEuMzY3NSAxMTg4Ljc1MzksOTU4LjI0MjUgUTExODguNzUzOSw5NTUuMTE3NSAxMTkwLjA2NjQsOTUzLjQ2MTMgUTExOTEuMzk0Niw5NTEuODA1IDExOTMuODk0Niw5NTEuODA1IFExMTk0LjU5NzcsOTUxLjgwNSAxMTk1LjIzODMsOTUxLjk2MTMgUTExOTUuODk0Niw5NTIuMTE3NSAxMTk2LjQ1NzEsOTUyLjQxNDQgTDExOTYuNDU3MSw5NTUuMTMzMSBRMTE5NS44MzIxLDk1NC41NTUgMTE5NS4yMzgzLDk1NC4yODk0IFExMTk0LjY0NDYsOTU0LjAwODEgMTE5NC4wMTk2LDk1NC4wMDgxIFExMTkyLjY3NTgsOTU0LjAwODEgMTE5MS45ODgzLDk1NS4wODYzIFExMTkxLjMwMDgsOTU2LjE0ODggMTE5MS4zMDA4LDk1OC4yNDI1IFExMTkxLjMwMDgsOTYwLjMzNjMgMTE5MS45ODgzLDk2MS40MTQ0IFExMTkyLjY3NTgsOTYyLjQ3NjkgMTE5NC4wMTk2LDk2Mi40NzY5IFExMTk0LjY0NDYsOTYyLjQ3NjkgMTE5NS4yMzgzLDk2Mi4yMTEzIFExMTk1LjgzMjEsOTYxLjkzIDExOTYuNDU3MSw5NjEuMzUxOSBMMTE5Ni40NTcxLDk2NC4wNzA2IFoiLz48dGV4dCB5PSI5NjMuMjc2NyIgeD0iMTIxMy45ODgzIiB0ZXh0TGVuZ3RoPSIzNi41MzEzIiBsZW5ndGhBZGp1c3Q9InNwYWNpbmciIGZvbnQtc2l6ZT0iMTQiIGZvbnQtZmFtaWx5PSJzYW5zLXNlcmlmIiBmaWxsPSIjMDAwMDAwIj5Mb2NhbDwvdGV4dD48bGluZSB5Mj0iOTc0LjQzIiB5MT0iOTc0LjQzIiB4Mj0iMTMxOS4yOTc5IiB4MT0iMTExMi43MSIgc3R5bGU9InN0cm9rZTojMTgxODE4O3N0cm9rZS13aWR0aDowLjU7Ii8+PGVsbGlwc2Ugc3R5bGU9InN0cm9rZTojMDM4MDQ4O3N0cm9rZS13aWR0aDoxOyIgcnk9IjMiIHJ4PSIzIiBmaWxsPSJub25lIiBjeT0iOTg4LjA3ODQiIGN4PSIxMTIyLjcxIi8+PHRleHQgeT0iOTkxLjQyNTEiIHg9IjExMzEuNzEiIHRleHRMZW5ndGg9IjkwLjYzNzciIGxlbmd0aEFkanVzdD0ic3BhY2luZyIgZm9udC1zaXplPSIxNCIgZm9udC1mYW1pbHk9InNhbnMtc2VyaWYiIGZpbGw9IiMwMDAwMDAiPm5vbWU6IFN0cmluZzwvdGV4dD48ZWxsaXBzZSBzdHlsZT0ic3Ryb2tlOiMwMzgwNDg7c3Ryb2tlLXdpZHRoOjE7IiByeT0iMyIgcng9IjMiIGZpbGw9Im5vbmUiIGN5PSIxMDA0LjM3NTMiIGN4PSIxMTIyLjcxIi8+PHRleHQgeT0iMTAwNy43MjIiIHg9IjExMzEuNzEiIHRleHRMZW5ndGg9IjEwNy43MTM5IiBsZW5ndGhBZGp1c3Q9InNwYWNpbmciIGZvbnQtc2l6ZT0iMTQiIGZvbnQtZmFtaWx5PSJzYW5zLXNlcmlmIiBmaWxsPSIjMDAwMDAwIj5jYXBhY2lkYWRlOiBpbnQ8L3RleHQ+PGVsbGlwc2Ugc3R5bGU9InN0cm9rZTojMDM4MDQ4O3N0cm9rZS13aWR0aDoxOyIgcnk9IjMiIHJ4PSIzIiBmaWxsPSJub25lIiBjeT0iMTAyMC42NzIyIiBjeD0iMTEyMi43MSIvPjx0ZXh0IHk9IjEwMjQuMDE4OSIgeD0iMTEzMS43MSIgdGV4dExlbmd0aD0iMTE2LjU2NjQiIGxlbmd0aEFkanVzdD0ic3BhY2luZyIgZm9udC1zaXplPSIxNCIgZm9udC1mYW1pbHk9InNhbnMtc2VyaWYiIGZpbGw9IiMwMDAwMDAiPmVuZGVyZWNvOiBTdHJpbmc8L3RleHQ+PGxpbmUgeTI9IjEwMzEuMzIwNiIgeTE9IjEwMzEuMzIwNiIgeDI9IjEzMTkuMjk3OSIgeDE9IjExMTIuNzEiIHN0eWxlPSJzdHJva2U6IzE4MTgxODtzdHJva2Utd2lkdGg6MC41OyIvPjxlbGxpcHNlIHN0eWxlPSJzdHJva2U6IzAzODA0ODtzdHJva2Utd2lkdGg6MTsiIHJ5PSIzIiByeD0iMyIgZmlsbD0iIzg0QkU4NCIgY3k9IjEwNDQuOTY5MSIgY3g9IjExMjIuNzEiLz48dGV4dCB5PSIxMDQ4LjMxNTciIHg9IjExMzEuNzEiIHRleHRMZW5ndGg9IjE4Mi41ODc5IiBsZW5ndGhBZGp1c3Q9InNwYWNpbmciIGZvbnQtc2l6ZT0iMTQiIGZvbnQtZmFtaWx5PSJzYW5zLXNlcmlmIiBmaWxsPSIjMDAwMDAwIj5kaXNwb25pYmlsaWRhZGUoKTogQm9vbGVhbjwvdGV4dD48ZWxsaXBzZSBzdHlsZT0ic3Ryb2tlOiMwMzgwNDg7c3Ryb2tlLXdpZHRoOjE7IiByeT0iMyIgcng9IjMiIGZpbGw9IiM4NEJFODQiIGN5PSIxMDYxLjI2NTkiIGN4PSIxMTIyLjcxIi8+PHRleHQgeT0iMTA2NC42MTI2IiB4PSIxMTMxLjcxIiB0ZXh0TGVuZ3RoPSIxNDQuOTAxNCIgbGVuZ3RoQWRqdXN0PSJzcGFjaW5nIiBmb250LXNpemU9IjE0IiBmb250LWZhbWlseT0ic2Fucy1zZXJpZiIgZmlsbD0iIzAwMDAwMCI+cmVzZXJ2YXJMb2NhbCgpOiB2b2lkPC90ZXh0PjwvZz48ZyBpZD0iZW50aXR5X0NvbXBldGljYW8iIGRhdGEtdWlkPSJlbnQwMDIwIiBkYXRhLXNvdXJjZS1saW5lPSI3MyIgZGF0YS1lbnRpdHk9IkNvbXBldGljYW8iIGNsYXNzPSJlbnRpdHkiPjxyZWN0IHk9Ijg5Ljc1IiB4PSI0Ni4xNSIgd2lkdGg9IjExNS42OTkyIiBzdHlsZT0ic3Ryb2tlOiMxODE4MTg7c3Ryb2tlLXdpZHRoOjAuNTsiIHJ5PSIyLjUiIHJ4PSIyLjUiIGhlaWdodD0iNDgiIGZpbGw9IiNGMUYxRjEiLz48ZWxsaXBzZSBzdHlsZT0ic3Ryb2tlOiMxODE4MTg7c3Ryb2tlLXdpZHRoOjE7IiByeT0iMTEiIHJ4PSIxMSIgZmlsbD0iI0FERDFCMiIgY3k9IjEwNS43NSIgY3g9IjYxLjE1Ii8+PHBhdGggZmlsbD0iIzAwMDAwMCIgZD0iTTY0LjExODgsMTExLjM5MDYgUTYzLjU0MDYsMTExLjY4NzUgNjIuOSwxMTEuODI4MSBRNjIuMjU5NCwxMTEuOTg0NCA2MS41NTYzLDExMS45ODQ0IFE1OS4wNTYzLDExMS45ODQ0IDU3LjcyODEsMTEwLjM0MzggUTU2LjQxNTYsMTA4LjY4NzUgNTYuNDE1NiwxMDUuNTYyNSBRNTYuNDE1NiwxMDIuNDM3NSA1Ny43MjgxLDEwMC43ODEzIFE1OS4wNTYzLDk5LjEyNSA2MS41NTYzLDk5LjEyNSBRNjIuMjU5NCw5OS4xMjUgNjIuOSw5OS4yODEzIFE2My41NTYzLDk5LjQzNzUgNjQuMTE4OCw5OS43MzQ0IEw2NC4xMTg4LDEwMi40NTMxIFE2My40OTM4LDEwMS44NzUgNjIuOSwxMDEuNjA5NCBRNjIuMzA2MywxMDEuMzI4MSA2MS42ODEzLDEwMS4zMjgxIFE2MC4zMzc1LDEwMS4zMjgxIDU5LjY1LDEwMi40MDYzIFE1OC45NjI1LDEwMy40Njg4IDU4Ljk2MjUsMTA1LjU2MjUgUTU4Ljk2MjUsMTA3LjY1NjMgNTkuNjUsMTA4LjczNDQgUTYwLjMzNzUsMTA5Ljc5NjkgNjEuNjgxMywxMDkuNzk2OSBRNjIuMzA2MywxMDkuNzk2OSA2Mi45LDEwOS41MzEzIFE2My40OTM4LDEwOS4yNSA2NC4xMTg4LDEwOC42NzE5IEw2NC4xMTg4LDExMS4zOTA2IFoiLz48dGV4dCB5PSIxMTAuNTk2NyIgeD0iNzUuMTUiIHRleHRMZW5ndGg9IjgzLjY5OTIiIGxlbmd0aEFkanVzdD0ic3BhY2luZyIgZm9udC1zaXplPSIxNCIgZm9udC1mYW1pbHk9InNhbnMtc2VyaWYiIGZpbGw9IiMwMDAwMDAiPkNvbXBldGljYW88L3RleHQ+PGxpbmUgeTI9IjEyMS43NSIgeTE9IjEyMS43NSIgeDI9IjE2MC44NDkyIiB4MT0iNDcuMTUiIHN0eWxlPSJzdHJva2U6IzE4MTgxODtzdHJva2Utd2lkdGg6MC41OyIvPjxsaW5lIHkyPSIxMjkuNzUiIHkxPSIxMjkuNzUiIHgyPSIxNjAuODQ5MiIgeDE9IjQ3LjE1IiBzdHlsZT0ic3Ryb2tlOiMxODE4MTg7c3Ryb2tlLXdpZHRoOjAuNTsiLz48L2c+PGcgaWQ9ImVudGl0eV9JbnNjcmljYW8iIGRhdGEtdWlkPSJlbnQwMDIxIiBkYXRhLXNvdXJjZS1saW5lPSI3NCIgZGF0YS1lbnRpdHk9Ikluc2NyaWNhbyIgY2xhc3M9ImVudGl0eSI+PHJlY3QgeT0iODkuNzUiIHg9IjE5Ni43NiIgd2lkdGg9Ijk0LjQ4MDUiIHN0eWxlPSJzdHJva2U6IzE4MTgxODtzdHJva2Utd2lkdGg6MC41OyIgcnk9IjIuNSIgcng9IjIuNSIgaGVpZ2h0PSI0OCIgZmlsbD0iI0YxRjFGMSIvPjxlbGxpcHNlIHN0eWxlPSJzdHJva2U6IzE4MTgxODtzdHJva2Utd2lkdGg6MTsiIHJ5PSIxMSIgcng9IjExIiBmaWxsPSIjQUREMUIyIiBjeT0iMTA1Ljc1IiBjeD0iMjExLjc2Ii8+PHBhdGggZmlsbD0iIzAwMDAwMCIgZD0iTTIxNC43Mjg4LDExMS4zOTA2IFEyMTQuMTUwNiwxMTEuNjg3NSAyMTMuNTEsMTExLjgyODEgUTIxMi44Njk0LDExMS45ODQ0IDIxMi4xNjYzLDExMS45ODQ0IFEyMDkuNjY2MywxMTEuOTg0NCAyMDguMzM4MSwxMTAuMzQzOCBRMjA3LjAyNTYsMTA4LjY4NzUgMjA3LjAyNTYsMTA1LjU2MjUgUTIwNy4wMjU2LDEwMi40Mzc1IDIwOC4zMzgxLDEwMC43ODEzIFEyMDkuNjY2Myw5OS4xMjUgMjEyLjE2NjMsOTkuMTI1IFEyMTIuODY5NCw5OS4xMjUgMjEzLjUxLDk5LjI4MTMgUTIxNC4xNjYzLDk5LjQzNzUgMjE0LjcyODgsOTkuNzM0NCBMMjE0LjcyODgsMTAyLjQ1MzEgUTIxNC4xMDM4LDEwMS44NzUgMjEzLjUxLDEwMS42MDk0IFEyMTIuOTE2MywxMDEuMzI4MSAyMTIuMjkxMywxMDEuMzI4MSBRMjEwLjk0NzUsMTAxLjMyODEgMjEwLjI2LDEwMi40MDYzIFEyMDkuNTcyNSwxMDMuNDY4OCAyMDkuNTcyNSwxMDUuNTYyNSBRMjA5LjU3MjUsMTA3LjY1NjMgMjEwLjI2LDEwOC43MzQ0IFEyMTAuOTQ3NSwxMDkuNzk2OSAyMTIuMjkxMywxMDkuNzk2OSBRMjEyLjkxNjMsMTA5Ljc5NjkgMjEzLjUxLDEwOS41MzEzIFEyMTQuMTAzOCwxMDkuMjUgMjE0LjcyODgsMTA4LjY3MTkgTDIxNC43Mjg4LDExMS4zOTA2IFoiLz48dGV4dCB5PSIxMTAuNTk2NyIgeD0iMjI1Ljc2IiB0ZXh0TGVuZ3RoPSI2Mi40ODA1IiBsZW5ndGhBZGp1c3Q9InNwYWNpbmciIGZvbnQtc2l6ZT0iMTQiIGZvbnQtZmFtaWx5PSJzYW5zLXNlcmlmIiBmaWxsPSIjMDAwMDAwIj5JbnNjcmljYW88L3RleHQ+PGxpbmUgeTI9IjEyMS43NSIgeTE9IjEyMS43NSIgeDI9IjI5MC4yNDA1IiB4MT0iMTk3Ljc2IiBzdHlsZT0ic3Ryb2tlOiMxODE4MTg7c3Ryb2tlLXdpZHRoOjAuNTsiLz48bGluZSB5Mj0iMTI5Ljc1IiB5MT0iMTI5Ljc1IiB4Mj0iMjkwLjI0MDUiIHgxPSIxOTcuNzYiIHN0eWxlPSJzdHJva2U6IzE4MTgxODtzdHJva2Utd2lkdGg6MC41OyIvPjwvZz48ZyBpZD0iZW50aXR5X1Jlc3VsdGFkbyIgZGF0YS11aWQ9ImVudDAwMjIiIGRhdGEtc291cmNlLWxpbmU9Ijc1IiBkYXRhLWVudGl0eT0iUmVzdWx0YWRvIiBjbGFzcz0iZW50aXR5Ij48cmVjdCB5PSIzMTEuODIiIHg9IjUzLjA0IiB3aWR0aD0iMTAxLjkxOCIgc3R5bGU9InN0cm9rZTojMTgxODE4O3N0cm9rZS13aWR0aDowLjU7IiByeT0iMi41IiByeD0iMi41IiBoZWlnaHQ9IjQ4IiBmaWxsPSIjRjFGMUYxIi8+PGVsbGlwc2Ugc3R5bGU9InN0cm9rZTojMTgxODE4O3N0cm9rZS13aWR0aDoxOyIgcnk9IjExIiByeD0iMTEiIGZpbGw9IiNBREQxQjIiIGN5PSIzMjcuODIiIGN4PSI2OC4wNCIvPjxwYXRoIGZpbGw9IiMwMDAwMDAiIGQ9Ik03MS4wMDg3LDMzMy40NjA2IFE3MC40MzA2LDMzMy43NTc1IDY5Ljc5LDMzMy44OTgxIFE2OS4xNDk0LDMzNC4wNTQ0IDY4LjQ0NjIsMzM0LjA1NDQgUTY1Ljk0NjIsMzM0LjA1NDQgNjQuNjE4MSwzMzIuNDEzOCBRNjMuMzA1NiwzMzAuNzU3NSA2My4zMDU2LDMyNy42MzI1IFE2My4zMDU2LDMyNC41MDc1IDY0LjYxODEsMzIyLjg1MTMgUTY1Ljk0NjIsMzIxLjE5NSA2OC40NDYyLDMyMS4xOTUgUTY5LjE0OTQsMzIxLjE5NSA2OS43OSwzMjEuMzUxMyBRNzAuNDQ2MiwzMjEuNTA3NSA3MS4wMDg3LDMyMS44MDQ0IEw3MS4wMDg3LDMyNC41MjMxIFE3MC4zODM3LDMyMy45NDUgNjkuNzksMzIzLjY3OTQgUTY5LjE5NjIsMzIzLjM5ODEgNjguNTcxMiwzMjMuMzk4MSBRNjcuMjI3NSwzMjMuMzk4MSA2Ni41NCwzMjQuNDc2MyBRNjUuODUyNSwzMjUuNTM4OCA2NS44NTI1LDMyNy42MzI1IFE2NS44NTI1LDMyOS43MjYzIDY2LjU0LDMzMC44MDQ0IFE2Ny4yMjc1LDMzMS44NjY5IDY4LjU3MTIsMzMxLjg2NjkgUTY5LjE5NjIsMzMxLjg2NjkgNjkuNzksMzMxLjYwMTMgUTcwLjM4MzcsMzMxLjMyIDcxLjAwODcsMzMwLjc0MTkgTDcxLjAwODcsMzMzLjQ2MDYgWiIvPjx0ZXh0IHk9IjMzMi42NjY3IiB4PSI4Mi4wNCIgdGV4dExlbmd0aD0iNjkuOTE4IiBsZW5ndGhBZGp1c3Q9InNwYWNpbmciIGZvbnQtc2l6ZT0iMTQiIGZvbnQtZmFtaWx5PSJzYW5zLXNlcmlmIiBmaWxsPSIjMDAwMDAwIj5SZXN1bHRhZG88L3RleHQ+PGxpbmUgeTI9IjM0My44MiIgeTE9IjM0My44MiIgeDI9IjE1My45NTgiIHgxPSI1NC4wNCIgc3R5bGU9InN0cm9rZTojMTgxODE4O3N0cm9rZS13aWR0aDowLjU7Ii8+PGxpbmUgeTI9IjM1MS44MiIgeTE9IjM1MS44MiIgeDI9IjE1My45NTgiIHgxPSI1NC4wNCIgc3R5bGU9InN0cm9rZTojMTgxODE4O3N0cm9rZS13aWR0aDowLjU7Ii8+PC9nPjxnIGlkPSJlbnRpdHlfQXRsZXRhIiBkYXRhLXVpZD0iZW50MDAyNCIgZGF0YS1zb3VyY2UtbGluZT0iNzkiIGRhdGEtZW50aXR5PSJBdGxldGEiIGNsYXNzPSJlbnRpdHkiPjxyZWN0IHk9Ijg5Ljc1IiB4PSIzNDcuMTgiIHdpZHRoPSI3My42Mzc3IiBzdHlsZT0ic3Ryb2tlOiMxODE4MTg7c3Ryb2tlLXdpZHRoOjAuNTsiIHJ5PSIyLjUiIHJ4PSIyLjUiIGhlaWdodD0iNDgiIGZpbGw9IiNGMUYxRjEiLz48ZWxsaXBzZSBzdHlsZT0ic3Ryb2tlOiMxODE4MTg7c3Ryb2tlLXdpZHRoOjE7IiByeT0iMTEiIHJ4PSIxMSIgZmlsbD0iI0FERDFCMiIgY3k9IjEwNS43NSIgY3g9IjM2Mi4xOCIvPjxwYXRoIGZpbGw9IiMwMDAwMDAiIGQ9Ik0zNjUuMTQ4OCwxMTEuMzkwNiBRMzY0LjU3MDYsMTExLjY4NzUgMzYzLjkzLDExMS44MjgxIFEzNjMuMjg5NCwxMTEuOTg0NCAzNjIuNTg2MywxMTEuOTg0NCBRMzYwLjA4NjMsMTExLjk4NDQgMzU4Ljc1ODEsMTEwLjM0MzggUTM1Ny40NDU2LDEwOC42ODc1IDM1Ny40NDU2LDEwNS41NjI1IFEzNTcuNDQ1NiwxMDIuNDM3NSAzNTguNzU4MSwxMDAuNzgxMyBRMzYwLjA4NjMsOTkuMTI1IDM2Mi41ODYzLDk5LjEyNSBRMzYzLjI4OTQsOTkuMTI1IDM2My45Myw5OS4yODEzIFEzNjQuNTg2Myw5OS40Mzc1IDM2NS4xNDg4LDk5LjczNDQgTDM2NS4xNDg4LDEwMi40NTMxIFEzNjQuNTIzOCwxMDEuODc1IDM2My45MywxMDEuNjA5NCBRMzYzLjMzNjMsMTAxLjMyODEgMzYyLjcxMTMsMTAxLjMyODEgUTM2MS4zNjc1LDEwMS4zMjgxIDM2MC42OCwxMDIuNDA2MyBRMzU5Ljk5MjUsMTAzLjQ2ODggMzU5Ljk5MjUsMTA1LjU2MjUgUTM1OS45OTI1LDEwNy42NTYzIDM2MC42OCwxMDguNzM0NCBRMzYxLjM2NzUsMTA5Ljc5NjkgMzYyLjcxMTMsMTA5Ljc5NjkgUTM2My4zMzYzLDEwOS43OTY5IDM2My45MywxMDkuNTMxMyBRMzY0LjUyMzgsMTA5LjI1IDM2NS4xNDg4LDEwOC42NzE5IEwzNjUuMTQ4OCwxMTEuMzkwNiBaIi8+PHRleHQgeT0iMTEwLjU5NjciIHg9IjM3Ni4xOCIgdGV4dExlbmd0aD0iNDEuNjM3NyIgbGVuZ3RoQWRqdXN0PSJzcGFjaW5nIiBmb250LXNpemU9IjE0IiBmb250LWZhbWlseT0ic2Fucy1zZXJpZiIgZmlsbD0iIzAwMDAwMCI+QXRsZXRhPC90ZXh0PjxsaW5lIHkyPSIxMjEuNzUiIHkxPSIxMjEuNzUiIHgyPSI0MTkuODE3NyIgeDE9IjM0OC4xOCIgc3R5bGU9InN0cm9rZTojMTgxODE4O3N0cm9rZS13aWR0aDowLjU7Ii8+PGxpbmUgeTI9IjEyOS43NSIgeTE9IjEyOS43NSIgeDI9IjQxOS44MTc3IiB4MT0iMzQ4LjE4IiBzdHlsZT0ic3Ryb2tlOiMxODE4MTg7c3Ryb2tlLXdpZHRoOjAuNTsiLz48L2c+PGcgaWQ9ImVudGl0eV9QYWlzIiBkYXRhLXVpZD0iZW50MDAyNSIgZGF0YS1zb3VyY2UtbGluZT0iODAiIGRhdGEtZW50aXR5PSJQYWlzIiBjbGFzcz0iZW50aXR5Ij48cmVjdCB5PSI4OS43NSIgeD0iNDU1LjkiIHdpZHRoPSI2MC4yMDUxIiBzdHlsZT0ic3Ryb2tlOiMxODE4MTg7c3Ryb2tlLXdpZHRoOjAuNTsiIHJ5PSIyLjUiIHJ4PSIyLjUiIGhlaWdodD0iNDgiIGZpbGw9IiNGMUYxRjEiLz48ZWxsaXBzZSBzdHlsZT0ic3Ryb2tlOiMxODE4MTg7c3Ryb2tlLXdpZHRoOjE7IiByeT0iMTEiIHJ4PSIxMSIgZmlsbD0iI0FERDFCMiIgY3k9IjEwNS43NSIgY3g9IjQ3MC45Ii8+PHBhdGggZmlsbD0iIzAwMDAwMCIgZD0iTTQ3My44Njg4LDExMS4zOTA2IFE0NzMuMjkwNiwxMTEuNjg3NSA0NzIuNjUsMTExLjgyODEgUTQ3Mi4wMDk0LDExMS45ODQ0IDQ3MS4zMDYzLDExMS45ODQ0IFE0NjguODA2MywxMTEuOTg0NCA0NjcuNDc4MSwxMTAuMzQzOCBRNDY2LjE2NTYsMTA4LjY4NzUgNDY2LjE2NTYsMTA1LjU2MjUgUTQ2Ni4xNjU2LDEwMi40Mzc1IDQ2Ny40NzgxLDEwMC43ODEzIFE0NjguODA2Myw5OS4xMjUgNDcxLjMwNjMsOTkuMTI1IFE0NzIuMDA5NCw5OS4xMjUgNDcyLjY1LDk5LjI4MTMgUTQ3My4zMDYzLDk5LjQzNzUgNDczLjg2ODgsOTkuNzM0NCBMNDczLjg2ODgsMTAyLjQ1MzEgUTQ3My4yNDM4LDEwMS44NzUgNDcyLjY1LDEwMS42MDk0IFE0NzIuMDU2MywxMDEuMzI4MSA0NzEuNDMxMywxMDEuMzI4MSBRNDcwLjA4NzUsMTAxLjMyODEgNDY5LjQsMTAyLjQwNjMgUTQ2OC43MTI1LDEwMy40Njg4IDQ2OC43MTI1LDEwNS41NjI1IFE0NjguNzEyNSwxMDcuNjU2MyA0NjkuNCwxMDguNzM0NCBRNDcwLjA4NzUsMTA5Ljc5NjkgNDcxLjQzMTMsMTA5Ljc5NjkgUTQ3Mi4wNTYzLDEwOS43OTY5IDQ3Mi42NSwxMDkuNTMxMyBRNDczLjI0MzgsMTA5LjI1IDQ3My44Njg4LDEwOC42NzE5IEw0NzMuODY4OCwxMTEuMzkwNiBaIi8+PHRleHQgeT0iMTEwLjU5NjciIHg9IjQ4NC45IiB0ZXh0TGVuZ3RoPSIyOC4yMDUxIiBsZW5ndGhBZGp1c3Q9InNwYWNpbmciIGZvbnQtc2l6ZT0iMTQiIGZvbnQtZmFtaWx5PSJzYW5zLXNlcmlmIiBmaWxsPSIjMDAwMDAwIj5QYWlzPC90ZXh0PjxsaW5lIHkyPSIxMjEuNzUiIHkxPSIxMjEuNzUiIHgyPSI1MTUuMTA1MSIgeDE9IjQ1Ni45IiBzdHlsZT0ic3Ryb2tlOiMxODE4MTg7c3Ryb2tlLXdpZHRoOjAuNTsiLz48bGluZSB5Mj0iMTI5Ljc1IiB5MT0iMTI5Ljc1IiB4Mj0iNTE1LjEwNTEiIHgxPSI0NTYuOSIgc3R5bGU9InN0cm9rZTojMTgxODE4O3N0cm9rZS13aWR0aDowLjU7Ii8+PC9nPjxnIGlkPSJlbnRpdHlfTG9jYWwiIGRhdGEtdWlkPSJlbnQwMDI3IiBkYXRhLXNvdXJjZS1saW5lPSI4NCIgZGF0YS1lbnRpdHk9IkxvY2FsIiBjbGFzcz0iZW50aXR5Ij48cmVjdCB5PSI4OS43NSIgeD0iNTg1LjczIiB3aWR0aD0iNjguNTMxMyIgc3R5bGU9InN0cm9rZTojMTgxODE4O3N0cm9rZS13aWR0aDowLjU7IiByeT0iMi41IiByeD0iMi41IiBoZWlnaHQ9IjQ4IiBmaWxsPSIjRjFGMUYxIi8+PGVsbGlwc2Ugc3R5bGU9InN0cm9rZTojMTgxODE4O3N0cm9rZS13aWR0aDoxOyIgcnk9IjExIiByeD0iMTEiIGZpbGw9IiNBREQxQjIiIGN5PSIxMDUuNzUiIGN4PSI2MDAuNzMiLz48cGF0aCBmaWxsPSIjMDAwMDAwIiBkPSJNNjAzLjY5ODgsMTExLjM5MDYgUTYwMy4xMjA2LDExMS42ODc1IDYwMi40OCwxMTEuODI4MSBRNjAxLjgzOTQsMTExLjk4NDQgNjAxLjEzNjMsMTExLjk4NDQgUTU5OC42MzYzLDExMS45ODQ0IDU5Ny4zMDgxLDExMC4zNDM4IFE1OTUuOTk1NiwxMDguNjg3NSA1OTUuOTk1NiwxMDUuNTYyNSBRNTk1Ljk5NTYsMTAyLjQzNzUgNTk3LjMwODEsMTAwLjc4MTMgUTU5OC42MzYzLDk5LjEyNSA2MDEuMTM2Myw5OS4xMjUgUTYwMS44Mzk0LDk5LjEyNSA2MDIuNDgsOTkuMjgxMyBRNjAzLjEzNjMsOTkuNDM3NSA2MDMuNjk4OCw5OS43MzQ0IEw2MDMuNjk4OCwxMDIuNDUzMSBRNjAzLjA3MzgsMTAxLjg3NSA2MDIuNDgsMTAxLjYwOTQgUTYwMS44ODYzLDEwMS4zMjgxIDYwMS4yNjEzLDEwMS4zMjgxIFE1OTkuOTE3NSwxMDEuMzI4MSA1OTkuMjMsMTAyLjQwNjMgUTU5OC41NDI1LDEwMy40Njg4IDU5OC41NDI1LDEwNS41NjI1IFE1OTguNTQyNSwxMDcuNjU2MyA1OTkuMjMsMTA4LjczNDQgUTU5OS45MTc1LDEwOS43OTY5IDYwMS4yNjEzLDEwOS43OTY5IFE2MDEuODg2MywxMDkuNzk2OSA2MDIuNDgsMTA5LjUzMTMgUTYwMy4wNzM4LDEwOS4yNSA2MDMuNjk4OCwxMDguNjcxOSBMNjAzLjY5ODgsMTExLjM5MDYgWiIvPjx0ZXh0IHk9IjExMC41OTY3IiB4PSI2MTQuNzMiIHRleHRMZW5ndGg9IjM2LjUzMTMiIGxlbmd0aEFkanVzdD0ic3BhY2luZyIgZm9udC1zaXplPSIxNCIgZm9udC1mYW1pbHk9InNhbnMtc2VyaWYiIGZpbGw9IiMwMDAwMDAiPkxvY2FsPC90ZXh0PjxsaW5lIHkyPSIxMjEuNzUiIHkxPSIxMjEuNzUiIHgyPSI2NTMuMjYxMyIgeDE9IjU4Ni43MyIgc3R5bGU9InN0cm9rZTojMTgxODE4O3N0cm9rZS13aWR0aDowLjU7Ii8+PGxpbmUgeTI9IjEyOS43NSIgeTE9IjEyOS43NSIgeDI9IjY1My4yNjEzIiB4MT0iNTg2LjczIiBzdHlsZT0ic3Ryb2tlOiMxODE4MTg7c3Ryb2tlLXdpZHRoOjAuNTsiLz48L2c+PGcgaWQ9ImxpbmtfQ29tcGV0aWNhb19Mb2NhbCIgZGF0YS11aWQ9ImxuazExIiBkYXRhLXNvdXJjZS1saW5lPSI2MiIgZGF0YS1lbnRpdHktMj0iTG9jYWwiIGRhdGEtZW50aXR5LTE9IkNvbXBldGljYW8iIGNsYXNzPSJsaW5rIj48cGF0aCBzdHlsZT0ic3Ryb2tlOiMxODE4MTg7c3Ryb2tlLXdpZHRoOjE7IiBpZD0iQ29tcGV0aWNhby10by1Mb2NhbCIgZmlsbD0ibm9uZSIgZD0iTTExMjguMzgsNDMzLjY2IEMxMTQzLjYzLDQ1MS45NCAxMTU3LjM1LDQ3Mi4wMSAxMTY3LDQ5My4xNiBDMTIzNS4xOSw2NDIuNTEgMTIzMS4yNzMxLDgzNS4zNDg3IDEyMjMuMzEzMSw5MzUuOTg4NyIvPjxwb2x5Z29uIHN0eWxlPSJzdHJva2U6IzE4MTgxODtzdHJva2Utd2lkdGg6MTsiIHBvaW50cz0iMTIyMi44NCw5NDEuOTcsMTIyNy41MzcyLDkzMy4zMTM0LDEyMjMuMjM0Miw5MzYuOTg1NiwxMjE5LjU2MjEsOTMyLjY4MjYsMTIyMi44NCw5NDEuOTciIGZpbGw9IiMxODE4MTgiLz48L2c+PGcgaWQ9ImxpbmtfQ29tcGV0aWNhb19BdGxldGEiIGRhdGEtdWlkPSJsbmsxMiIgZGF0YS1zb3VyY2UtbGluZT0iNjMiIGRhdGEtZW50aXR5LTI9IkF0bGV0YSIgZGF0YS1lbnRpdHktMT0iQ29tcGV0aWNhbyIgY2xhc3M9ImxpbmsiPjxwYXRoIHN0eWxlPSJzdHJva2U6IzE4MTgxODtzdHJva2Utd2lkdGg6MTsiIGlkPSJDb21wZXRpY2FvLXRvLUF0bGV0YSIgZmlsbD0ibm9uZSIgZD0iTTEwOTYuMDEsNDMzLjMxIEMxMTQzLjgzLDUwNC42NCAxMTg1LjY0LDU5OS44OSAxMTI3LDY2Mi42NCBDMTExOC4wMyw2NzIuMjUgMTAyMC45OCw2NjUuMjMgMTAwOSw2NzAuNjQgQzk3OS43NCw2ODMuODcgOTU3LjM4NDMsNzAyLjIxMzQgOTM1Ljk3NDMsNzI1LjA0MzQiLz48cG9seWdvbiBzdHlsZT0ic3Ryb2tlOiMxODE4MTg7c3Ryb2tlLXdpZHRoOjE7IiBwb2ludHM9IjkzMS44Nyw3MjkuNDIsOTQwLjk0NDIsNzI1LjU5MTQsOTM1LjI5MDMsNzI1Ljc3MjksOTM1LjEwODgsNzIwLjExODksOTMxLjg3LDcyOS40MiIgZmlsbD0iIzE4MTgxOCIvPjx0ZXh0IHk9IjcxOC41NTgzIiB4PSI5MzEuMDAwMSIgdGV4dExlbmd0aD0iNi41IiBsZW5ndGhBZGp1c3Q9InNwYWNpbmciIGZvbnQtc2l6ZT0iMTMiIGZvbnQtZmFtaWx5PSJzYW5zLXNlcmlmIiBmaWxsPSIjMDAwMDAwIj4qPC90ZXh0PjwvZz48ZyBpZD0ibGlua19BdGxldGFfUGFpcyIgZGF0YS11aWQ9ImxuazEzIiBkYXRhLXNvdXJjZS1saW5lPSI2NCIgZGF0YS1lbnRpdHktMj0iUGFpcyIgZGF0YS1lbnRpdHktMT0iQXRsZXRhIiBjbGFzcz0ibGluayI+PHBhdGggc3R5bGU9InN0cm9rZTojMTgxODE4O3N0cm9rZS13aWR0aDoxOyIgaWQ9IkF0bGV0YS10by1QYWlzIiBmaWxsPSJub25lIiBkPSJNODc3LDg3NS44MyBDODc3LDg5Ny40MyA4NzcsOTE0Ljk0IDg3Nyw5MzUuOTgiLz48cG9seWdvbiBzdHlsZT0ic3Ryb2tlOiMxODE4MTg7c3Ryb2tlLXdpZHRoOjE7IiBwb2ludHM9Ijg3Nyw5NDEuOTgsODgxLDkzMi45OCw4NzcsOTM2Ljk4LDg3Myw5MzIuOTgsODc3LDk0MS45OCIgZmlsbD0iIzE4MTgxOCIvPjwvZz48ZyBpZD0ibGlua19SZXN1bHRhZG9fQXRsZXRhIiBkYXRhLXVpZD0ibG5rMTQiIGRhdGEtc291cmNlLWxpbmU9IjY1IiBkYXRhLWVudGl0eS0yPSJBdGxldGEiIGRhdGEtZW50aXR5LTE9IlJlc3VsdGFkbyIgY2xhc3M9ImxpbmsiPjxwYXRoIHN0eWxlPSJzdHJva2U6IzE4MTgxODtzdHJva2Utd2lkdGg6MTsiIGlkPSJSZXN1bHRhZG8tdG8tQXRsZXRhIiBmaWxsPSJub25lIiBkPSJNOTU4LjY5LDYyMi45NyBDOTQzLjczLDY1NS42OCA5MjcuOTU2Myw2OTAuMTQ0IDkxMi40OTYzLDcyMy45MzQiLz48cG9seWdvbiBzdHlsZT0ic3Ryb2tlOiMxODE4MTg7c3Ryb2tlLXdpZHRoOjE7IiBwb2ludHM9IjkxMCw3MjkuMzksOTE3LjM4MTgsNzIyLjg3MDEsOTEyLjA4MDMsNzI0Ljg0MzMsOTEwLjEwNzEsNzE5LjU0MTcsOTEwLDcyOS4zOSIgZmlsbD0iIzE4MTgxOCIvPjwvZz48ZyBpZD0ibGlua19Db21wZXRpY2FvX1Jlc3VsdGFkbyIgZGF0YS11aWQ9ImxuazE1IiBkYXRhLXNvdXJjZS1saW5lPSI2NiIgZGF0YS1lbnRpdHktMj0iUmVzdWx0YWRvIiBkYXRhLWVudGl0eS0xPSJDb21wZXRpY2FvIiBjbGFzcz0ibGluayI+PHBhdGggc3R5bGU9InN0cm9rZTojMTgxODE4O3N0cm9rZS13aWR0aDoxOyIgaWQ9IkNvbXBldGljYW8tdG8tUmVzdWx0YWRvIiBmaWxsPSJub25lIiBkPSJNMTAwNC44NCw0MzMuMzUgQzEwMDIuMSw0NTMuNDUgMTAwMC4wODk1LDQ2OC4yMTQ5IDk5Ny41NTk1LDQ4Ni43OTQ5Ii8+PHBvbHlnb24gc3R5bGU9InN0cm9rZTojMTgxODE4O3N0cm9rZS13aWR0aDoxOyIgcG9pbnRzPSI5OTYuNzUsNDkyLjc0LDEwMDEuOTI3Nyw0ODQuMzYyLDk5Ny40MjQ2LDQ4Ny43ODU3LDk5NC4wMDA5LDQ4My4yODI2LDk5Ni43NSw0OTIuNzQiIGZpbGw9IiMxODE4MTgiLz48L2c+PGcgaWQ9ImxpbmtfSW5zY3JpY2FvX0F0bGV0YSIgZGF0YS11aWQ9ImxuazE2IiBkYXRhLXNvdXJjZS1saW5lPSI2NyIgZGF0YS1lbnRpdHktMj0iQXRsZXRhIiBkYXRhLWVudGl0eS0xPSJJbnNjcmljYW8iIGNsYXNzPSJsaW5rIj48cGF0aCBzdHlsZT0ic3Ryb2tlOiMxODE4MTg7c3Ryb2tlLXdpZHRoOjE7IiBpZD0iSW5zY3JpY2FvLXRvLUF0bGV0YSIgZmlsbD0ibm9uZSIgZD0iTTg4OS42NiwxNTEuMDEgQzg1MC4yNSwxNzAuNDcgODA5LjQ1LDE5OC44MiA3ODcsMjM4LjQ5IEM2OTQuMTYsNDAyLjU2IDczMy41NSw0ODEuODcgNzg3LDY2Mi42NCBDNzkzLjg4LDY4NS45MyA4MDIuNzc3NCw3MDMuOTI4MSA4MTUuOTU3NCw3MjQuMzU4MSIvPjxwb2x5Z29uIHN0eWxlPSJzdHJva2U6IzE4MTgxODtzdHJva2Utd2lkdGg6MTsiIHBvaW50cz0iODE5LjIxLDcyOS40LDgxNy42OTIzLDcxOS42Njg4LDgxNi40OTk1LDcyNS4xOTg1LDgxMC45Njk4LDcyNC4wMDU3LDgxOS4yMSw3MjkuNCIgZmlsbD0iIzE4MTgxOCIvPjwvZz48ZyBpZD0ibGlua19JbnNjcmljYW9fQ29tcGV0aWNhbyIgZGF0YS11aWQ9ImxuazE3IiBkYXRhLXNvdXJjZS1saW5lPSI2OCIgZGF0YS1lbnRpdHktMj0iQ29tcGV0aWNhbyIgZGF0YS1lbnRpdHktMT0iSW5zY3JpY2FvIiBjbGFzcz0ibGluayI+PHBhdGggc3R5bGU9InN0cm9rZTojMTgxODE4O3N0cm9rZS13aWR0aDoxOyIgaWQ9Ikluc2NyaWNhby10by1Db21wZXRpY2FvIiBmaWxsPSJub25lIiBkPSJNMTAwMC4yNiwxNzguNyBDMTAwMi4zOCwxOTcuMzUgMTAwNC4wNzM4LDIxMi4yMDgyIDEwMDYuMzYzOCwyMzIuMzk4MiIvPjxwb2x5Z29uIHN0eWxlPSJzdHJva2U6IzE4MTgxODtzdHJva2Utd2lkdGg6MTsiIHBvaW50cz0iMTAwNy4wNCwyMzguMzYsMTAxMC4wMDAyLDIyOC45NjY1LDEwMDYuNDc2NSwyMzMuMzkxOSwxMDAyLjA1MTIsMjI5Ljg2ODEsMTAwNy4wNCwyMzguMzYiIGZpbGw9IiMxODE4MTgiLz48L2c+PGcgaWQ9ImxpbmtfR2VzdMOjbyBkZSBDb21wZXRpw6fDtWVzX0dlc3TDo28gZGUgQXRsZXRhcyIgZGF0YS11aWQ9ImxuazI4IiBkYXRhLXNvdXJjZS1saW5lPSI4OCIgZGF0YS1lbnRpdHktMj0iR2VzdMOjbyBkZSBBdGxldGFzIiBkYXRhLWVudGl0eS0xPSJHZXN0w6NvIGRlIENvbXBldGnDp8O1ZXMiIGNsYXNzPSJsaW5rIj48cGF0aCBzdHlsZT0ic3Ryb2tlOiMxODE4MTg7c3Ryb2tlLXdpZHRoOjE7IiBpZD0iR2VzdMOjbyBkZSBDb21wZXRpw6fDtWVzLXRvLUdlc3TDo28gZGUgQXRsZXRhcyIgZmlsbD0ibm9uZSIgZD0iTTg0MS44NjEsMjUwLjAwMjcgQzg0MC45OTgsMjUxLjQyNyA4NDAuMTQ4NywyNTIuODk4IDgzOS4zMTM0LDI1NC40MTQxIEM4MzUuOTcyLDI2MC40Nzg1IDgzMi44NTI0LDI2Ny4yNjQ2IDgyOS45NTgxLDI3NC42NjgxIEM4MjQuMTY5NSwyODkuNDc1MiA4MTkuMjgxOSwzMDYuNzUyIDgxNS4zMjE5LDMyNS42NjQ1IEM4MDcuNDAxOSwzNjMuNDg5NyA4MDMuMTkyNSw0MDcuODU4MSA4MDIuOTA3NSw0NTIuMDk4OCBDODAyLjMzNzUsNTQwLjU4IDgxNy40NjUsNjI4LjU1IDg1MCw2NjIuNjQgQzg2My4xMyw2NzYuNCAxMDA2LjkxLDY1Ny44NyAxMDIxLDY3MC42NCBDMTAyMy42Nzg4LDY3My4wNyAxMDI2LjA5OTgsNjc1LjY5NjQgMTAyOC4yODQ3LDY3OC40ODYgQzEwMjkuMzc3Miw2NzkuODgwNyAxMDMwLjQxMDYsNjgxLjMxNjMgMTAzMS4zODc3LDY4Mi43ODg0IEMxMDMxLjg3NjMsNjgzLjUyNDQgMTAzMi4zNTA3LDY4NC4yNjk3IDEwMzIuODExNSw2ODUuMDIzNSBDMTAzMy4wNDE4LDY4NS40MDA0IDEwMzAuMjMzNiw3MDIuOTAwNyAxMDMwLjQ1NzEsNzAzLjI4MTkiLz48cG9seWdvbiBzdHlsZT0ic3Ryb2tlOiMxODE4MTg7c3Ryb2tlLXdpZHRoOjE7IiBwb2ludHM9IjEwMzMuNDkyMyw3MDguNDU3NSwxMDMyLjM5LDY5OC42NzA2LDEwMzAuOTYzLDcwNC4xNDQ1LDEwMjUuNDg5MSw3MDIuNzE3NSwxMDMzLjQ5MjMsNzA4LjQ1NzUiIGZpbGw9IiMxODE4MTgiLz48L2c+PGcgaWQ9ImxpbmtfR2VzdMOjbyBkZSBDb21wZXRpw6fDtWVzX0luZnJhZXN0cnV0dXJhIiBkYXRhLXVpZD0ibG5rMjkiIGRhdGEtc291cmNlLWxpbmU9Ijg5IiBkYXRhLWVudGl0eS0yPSJJbmZyYWVzdHJ1dHVyYSIgZGF0YS1lbnRpdHktMT0iR2VzdMOjbyBkZSBDb21wZXRpw6fDtWVzIiBjbGFzcz0ibGluayI+PHBhdGggc3R5bGU9InN0cm9rZTojMTgxODE4O3N0cm9rZS13aWR0aDoxOyIgaWQ9Ikdlc3TDo28gZGUgQ29tcGV0acOnw7Vlcy10by1JbmZyYWVzdHJ1dHVyYSIgZmlsbD0ibm9uZSIgZD0iTTEyMDIuMjEyOCwxNTcuNDA4MSBDMTIwMi4zMTk1LDE1Ny45NjQ2IDEyMDIuNDI3MiwxNTguNTI2IDEyMDIuNTM1OCwxNTkuMDkyNCBDMTIwNC4yNzMzLDE2OC4xNTQyIDEyMDYuMjQ5NSwxNzguNDc1MiAxMjA4LjQzOTEsMTg5LjkzMzYgQzEyMTcuMTk3NSwyMzUuNzY3MiAxMjI5LjM3MTMsMjk5Ljc5OTQgMTI0My4zNSwzNzQuMjM4OCBDMTI3MS4zMDc1LDUyMy4xMTc1IDEzMDYuNDg1LDcxMy42MjUgMTMzNiw4ODMuNDMgQzEzMzYuNTgyNSw4ODYuNzggMTMzNy4xNjksODkwLjE4MjQgMTMzNy43NTY5LDg5My42MTggQzEzMzguMDUwOCw4OTUuMzM1OCAxMzM3LjM0MDEsOTEzLjQ0MzYgMTMzNy42MzQ0LDkxNS4xNzU3Ii8+PHBvbHlnb24gc3R5bGU9InN0cm9rZTojMTgxODE4O3N0cm9rZS13aWR0aDoxOyIgcG9pbnRzPSIxMzM4LjYzOTMsOTIxLjA5MDksMTM0MS4wNzU0LDkxMS41NDgxLDEzMzcuODAxOSw5MTYuMTYxNSwxMzMzLjE4ODQsOTEyLjg4OCwxMzM4LjYzOTMsOTIxLjA5MDkiIGZpbGw9IiMxODE4MTgiLz48L2c+PGcgaWQ9ImxpbmtfR2VzdMOjbyBkZSBBdGxldGFzX0luZnJhZXN0cnV0dXJhIiBkYXRhLXVpZD0ibG5rMzAiIGRhdGEtc291cmNlLWxpbmU9IjkwIiBkYXRhLWVudGl0eS0yPSJJbmZyYWVzdHJ1dHVyYSIgZGF0YS1lbnRpdHktMT0iR2VzdMOjbyBkZSBBdGxldGFzIiBjbGFzcz0ibGluayI+PHBhdGggc3R5bGU9InN0cm9rZTojMTgxODE4O3N0cm9rZS13aWR0aDoxOyIgaWQ9Ikdlc3TDo28gZGUgQXRsZXRhcy10by1JbmZyYWVzdHJ1dHVyYSIgZmlsbD0ibm9uZSIgZD0iTTEwNDguMjYyOSw4MDUuNjM1NSBDMTA0OS44OTY5LDgwNi4wNTExIDEwNTEuNzU0Myw4MDYuNTIzNyAxMDUzLjgxNzgsODA3LjA0OTIgQzEwNjIuMDcyMSw4MDkuMTUxMiAxMDczLjYyNTcsODEyLjA5OTMgMTA4Ny4zODIsODE1LjYyNDggQzExMTQuODk0Nyw4MjIuNjc1OSAxMTUxLjIxODEsODMyLjAzNjkgMTE4Ny41Nzg4LDg0MS41NTg4IEMxMjYwLjMsODYwLjYwMjUgMTMzMy4xNyw4ODAuMjkgMTMzNiw4ODMuNDMgQzEzMzguMjc4OCw4ODUuOTUzOCAxMzQwLjM1MjgsODg4LjYzMTUgMTM0Mi4yMzg3LDg5MS40MzQ4IEMxMzQzLjE4MTcsODkyLjgzNjUgMTM0NC4wNzc3LDg5NC4yNjk1IDEzNDQuOTI4Niw4OTUuNzMwMyBDMTM0NS4zNTQxLDg5Ni40NjA4IDEzNDUuNzY4NCw4OTcuMTk4MSAxMzQ2LjE3MTYsODk3Ljk0MiBDMTM0Ni4zNzMzLDg5OC4zMTQgMTM0My43OTE4LDkxNS42Njc1IDEzNDMuOTg3OSw5MTYuMDQyNiIvPjxwb2x5Z29uIHN0eWxlPSJzdHJva2U6IzE4MTgxODtzdHJva2Utd2lkdGg6MTsiIHBvaW50cz0iMTM0Ni43NjgzLDkyMS4zNTk1LDEzNDYuMTQyMyw5MTEuNTMwNiwxMzQ0LjQ1MTMsOTE2LjkyODgsMTMzOS4wNTMxLDkxNS4yMzc4LDEzNDYuNzY4Myw5MjEuMzU5NSIgZmlsbD0iIzE4MTgxOCIvPjwvZz48L2c+PC9zdmc+;" vertex="1" parent="1">
          <mxGeometry width="1200" height="963" as="geometry" />
        </mxCell>
      </root>
    </mxGraphModel>
  </diagram>
</mxfile>
